<svg xmlns="http://www.w3.org/2000/svg" viewBox="0 0 38 34"><defs><style>.cls-1{fill:none;}.cls-2{fill:#34a853;}.cls-3{fill:#4285f4;}.cls-4{fill:#fbbc05;}.cls-5{fill:#ea4335;}</style></defs><g id="Layer_2" data-name="Layer 2"><g id="Layer_1-2" data-name="Layer 1"><path class="cls-1" d="M32.84,7.11H31.62l4.14,3.52V10A2.93,2.93,0,0,0,32.84,7.11Z"/><path class="cls-2" d="M32.84,7.11A2.93,2.93,0,0,1,35.76,10v.59L38,12.52V7.14a2.77,2.77,0,0,0-.87-2,2.76,2.76,0,0,0-2-.87H28.25l3.37,2.86Z"/><path class="cls-3" d="M2.24,10A2.93,2.93,0,0,1,5.16,7.11H31.62L28.25,4.25,24.58,0H13.42L9.75,4.25H2.88a2.76,2.76,0,0,0-2,.87,2.78,2.78,0,0,0-.85,2V18.07l2.24,1.27Z"/><circle class="cls-3" cx="19" cy="18.92" r="6.87" transform="translate(-3.84 4.87) rotate(-13.28)"/><path class="cls-1" d="M5.16,31.75H32.84a2.93,2.93,0,0,0,2.92-2.93V10.63L31.62,7.11H5.16A2.93,2.93,0,0,0,2.24,10v9.3l4,2.25-4-2.25v9.48A2.93,2.93,0,0,0,5.16,31.75ZM19,12.05a6.87,6.87,0,1,1-6.87,6.87A6.86,6.86,0,0,1,19,12.05Z"/><path class="cls-4" d="M5.16,31.75a2.93,2.93,0,0,1-2.92-2.93V19.34L0,18.07V31.12a2.77,2.77,0,0,0,.85,2,2.77,2.77,0,0,0,2,.85h12l-2.18-2.25Z"/><path class="cls-5" d="M35.76,10.63V28.82a2.93,2.93,0,0,1-2.92,2.93H12.66L14.84,34H35.12A2.94,2.94,0,0,0,38,31.12V12.52Z"/></g></g></svg>