<svg xmlns="http://www.w3.org/2000/svg" viewBox="0 0 26 36.5"><defs><style>.cls-1{fill:#4285f4;}.cls-2{fill:#34a853;}.cls-3{fill:#fbbc05;}.cls-4{fill:#ea4335;}</style></defs><g id="Layer_2" data-name="Layer 2"><g id="Layer_1-2" data-name="Layer 1"><path class="cls-1" d="M13,21.16a4.07,4.07,0,0,1-3.08-1.31A4.5,4.5,0,0,1,8.7,16.67V4.27a4.12,4.12,0,0,1,1.25-3A4.14,4.14,0,0,1,13,0a4.16,4.16,0,0,1,3.05,1.25,4.12,4.12,0,0,1,1.25,3v12.4a4.5,4.5,0,0,1-1.22,3.18A4.07,4.07,0,0,1,13,21.16Z"/><path class="cls-1" d="M13,18.89a1.88,1.88,0,0,0,1.46-.65A2.31,2.31,0,0,0,15,16.66V4.27a1.93,1.93,0,0,0-.58-1.43,2.13,2.13,0,0,0-2.9,0A1.93,1.93,0,0,0,11,4.27V16.66a2.31,2.31,0,0,0,.57,1.58A1.88,1.88,0,0,0,13,18.89Z"/><path class="cls-2" d="M11.87,29.43V36.5h2.26V29.43A8.29,8.29,0,0,1,11.87,29.43Z"/><path class="cls-3" d="M2.27,16.67H0a12.14,12.14,0,0,0,2.41,7.42l1.71-1.42A10.09,10.09,0,0,1,2.27,16.67Z"/><path class="cls-4" d="M23.73,16.67a10,10,0,0,1-3.15,7.5,10.49,10.49,0,0,1-7.59,3,10.46,10.46,0,0,1-7.59-3,11.18,11.18,0,0,1-1.28-1.5L2.41,24.09a13,13,0,0,0,9.46,5.34,8.29,8.29,0,0,0,2.26,0,12.76,12.76,0,0,0,8.44-4.1A12.22,12.22,0,0,0,26,16.67Z"/></g></g></svg>