<svg xmlns="http://www.w3.org/2000/svg" viewBox="0 0 204.42 188.4"><defs><style>.cls-1{fill:#eb7f80;}.cls-2{fill:#e44b44;}.cls-3{fill:#ea7775;}.cls-4{fill:#e24039;}.cls-5{fill:#db2d28;}.cls-6{fill:#ee807e;}.cls-7{fill:#be2126;}.cls-8{fill:#ec8987;}.cls-9{fill:#ee8381;}.cls-10{fill:#f5a09f;}.cls-11{fill:#a8a875;}.cls-12{fill:#725e2d;}.cls-13{fill:#ed8381;}.cls-14{fill:#f6b9ba;}.cls-15{fill:#f6a6a4;}.cls-16{fill:#f5b0b3;}.cls-17{fill:#f6adaf;}.cls-18{fill:#f5a8a9;}.cls-19{fill:#dd4c49;}.cls-20{fill:#f5b2b3;}.cls-21{fill:#f6a4a3;}.cls-22{fill:#f6abaa;}.cls-23{fill:#f6a9a8;}.cls-24{fill:#f7b9b7;}.cls-25{fill:#f59d9a;}.cls-26{fill:#fff9f7;}.cls-27{fill:#f5928f;}.cls-28{fill:#e33a2f;}.cls-29{fill:#95924a;}.cls-30{fill:#f7c0be;}.cls-31{fill:#f6b1b0;}.cls-32{fill:#d82f28;}.cls-33{fill:#ea5a52;}.cls-34{fill:#d62227;}.cls-35{fill:#e44036;}.cls-36{fill:#e45857;}.cls-37{fill:#685127;}.cls-38{fill:#f59290;}.cls-39{fill:#f8bfbd;}.cls-40{fill:#f6adac;}.cls-41{fill:#f7b4b2;}.cls-42{fill:#f7b8b7;}.cls-43{fill:#ea7574;}.cls-44{fill:#d02427;}.cls-45{fill:#f5b2b1;}.cls-46{fill:#f5a4a4;}.cls-47{fill:#f8bfbf;}.cls-48{fill:#f58e8a;}.cls-49{fill:#f48583;}.cls-50{fill:#f59c9b;}.cls-51{fill:#f6a9a9;}.cls-52{fill:#f6a9ac;}.cls-53{fill:#f26f6a;}.cls-54{fill:#f4a6a4;}.cls-55{fill:#722919;}.cls-56{fill:#f5b2b0;}.cls-57{fill:#9a1e1f;}.cls-58{fill:#a55943;}.cls-59{fill:#8f211c;}.cls-60{fill:#e8c3bd;}.cls-61{fill:#f6aaad;}.cls-62{fill:#f37d7a;}.cls-63{fill:#f48280;}.cls-64{fill:#f59595;}.cls-65{fill:#f5adaa;}.cls-66{fill:#f6acad;}.cls-67{fill:#f6b7ba;}.cls-68{fill:#f4807c;}.cls-69{fill:#f37471;}.cls-70{fill:#f48581;}.cls-71{fill:#f37975;}.cls-72{fill:#f58d8b;}.cls-73{fill:#f69c9b;}.cls-74{fill:#f58984;}.cls-75{fill:#f2918f;}.cls-76{fill:#f69a9a;}.cls-77{fill:#e23b2f;}.cls-78{fill:#f9c6c4;}.cls-79{fill:#f5b0ac;}.cls-80{fill:#f6a7a4;}.cls-81{fill:#f6b1af;}.cls-82{fill:#f69a98;}.cls-83{fill:#da2827;}.cls-84{fill:#f6b0af;}.cls-85{fill:#f5908b;}.cls-86{fill:#f5918d;}.cls-87{fill:#f58985;}.cls-88{fill:#f6b4b1;}.cls-89{fill:#f6948f;}.cls-90{fill:#b9b83e;}.cls-91{fill:#e89189;}.cls-92{fill:#e87574;}.cls-93{fill:#f7b9b8;}.cls-94{fill:#f8c1c3;}.cls-95{fill:#f8bcbd;}.cls-96{fill:#f8c5c6;}.cls-97{fill:#f7b6b4;}.cls-98{fill:#f5b0af;}.cls-99{fill:#f69998;}.cls-100{fill:#f38581;}.cls-101{fill:#f28381;}.cls-102{fill:#847a47;}.cls-103{fill:#6e6431;}.cls-104{fill:#4e4720;}.cls-105{fill:#e8453d;}.cls-106{fill:#ce2227;}.cls-107{fill:#f58a87;}.cls-108{fill:#f7b4b3;}.cls-109{fill:#f5a7a3;}.cls-110{fill:#f37772;}.cls-111{fill:#f48080;}.cls-112{fill:#f26f6c;}.cls-113{fill:#f69e9d;}.cls-114{fill:#d42729;}.cls-115{fill:#f1716d;}.cls-116{fill:#f7a19f;}.cls-117{fill:#f37271;}.cls-118{fill:#f5a3a2;}.cls-119{fill:#f5a0a2;}.cls-120{fill:#f6a1a3;}.cls-121{fill:#ed6561;}.cls-122{fill:#f5a3a4;}.cls-123{fill:#f59192;}.cls-124{fill:#f6a0a1;}.cls-125{fill:#f6a7a7;}.cls-126{fill:#ef6b67;}.cls-127{fill:#c14a29;}.cls-128{fill:#d25c2e;}.cls-129{fill:#f58d8d;}.cls-130{fill:#c56e5b;}.cls-131{fill:#932e1d;}.cls-132{fill:#786b35;}.cls-133{fill:#f48683;}.cls-134{fill:#908346;}.cls-135{fill:#e1d1c9;}.cls-136{fill:#e2c3ba;}.cls-137{fill:#673013;}.cls-138{fill:#8c7c3a;}.cls-139{fill:#7c451d;}.cls-140{fill:#dfcec0;}.cls-141{fill:#d72427;}.cls-142{fill:#f6a6a6;}.cls-143{fill:#e23f38;}.cls-144{fill:#e74940;}.cls-145{fill:#6b1917;}.cls-146{fill:#731c15;}.cls-147{fill:#b74326;}.cls-148{fill:#ef746d;}.cls-149{fill:#f6b5b5;}.cls-150{fill:#f59391;}.cls-151{fill:#f4837f;}.cls-152{fill:#f6abab;}.cls-153{fill:#f69b9a;}.cls-154{fill:#f58c86;}.cls-155{fill:#e95551;}.cls-156{fill:#f69e9c;}.cls-157{fill:#f37e7b;}.cls-158{fill:#f5b2af;}.cls-159{fill:#f7b4b5;}.cls-160{fill:#dc2e2b;}.cls-161{fill:#f6b4b3;}.cls-162{fill:#f59b9a;}.cls-163{fill:#f58b89;}.cls-164{fill:#f58a88;}.cls-165{fill:#f5918f;}.cls-166{fill:#f59291;}.cls-167{fill:#f6a8a8;}.cls-168{fill:#ed514a;}.cls-169{fill:#f69593;}.cls-170{fill:#f3726b;}.cls-171{fill:#f5908d;}.cls-172{fill:#f26d67;}.cls-173{fill:#f6a4a2;}.cls-174{fill:#2d2b16;}.cls-175{fill:#f69896;}.cls-176{fill:#918b55;}.cls-177{fill:#a1995b;}.cls-178{fill:#e23d34;}.cls-179{fill:#ed615a;}.cls-180{fill:#f5a2a1;}.cls-181{fill:#f07573;}.cls-182{fill:#e22e28;}.cls-183{fill:#db2127;}.cls-184{fill:#912b1e;}.cls-185{fill:#f37e7e;}.cls-186{fill:#c45628;}.cls-187{fill:#f5a4a6;}.cls-188{fill:#f6acac;}.cls-189{fill:#e9514a;}.cls-190{fill:#c12226;}.cls-191{fill:#f69b99;}.cls-192{fill:#ec5d57;}.cls-193{fill:#a89958;}.cls-194{fill:#847b3e;}.cls-195{fill:#403518;}.cls-196{fill:#958c54;}.cls-197{fill:#8e5d25;}.cls-198{fill:#cfbeaa;}.cls-199{fill:#a45025;}.cls-200{fill:#5e512a;}.cls-201{fill:#cfb19e;}.cls-202{fill:#ccb395;}.cls-203{fill:#a94a25;}.cls-204{fill:#7b1817;}.cls-205{fill:#5c3113;}.cls-206{fill:#3e2813;}.cls-207{fill:#8d3328;}.cls-208{fill:#f5bab6;}.cls-209{fill:#d8532a;}.cls-210{fill:#a44324;}.cls-211{fill:#d6bba5;}.cls-212{fill:#f5a3a1;}.cls-213{fill:#881d1b;}.cls-214{fill:#cd5a41;}.cls-215{fill:#e6bab3;}.cls-216{fill:#ed7270;}.cls-217{fill:#32100c;}.cls-218{fill:#581512;}.cls-219{fill:#d06962;}.cls-220{fill:#721912;}.cls-221{fill:#dbc9bf;}.cls-222{fill:#f0908e;}.cls-223{fill:#f2706c;}.cls-224{fill:#f69591;}.cls-225{fill:#c84528;}.cls-226{fill:#f6a7a6;}.cls-227{fill:#f37d76;}.cls-228{fill:#f48986;}.cls-229{fill:#f7b6b5;}.cls-230{fill:#f5928e;}.cls-231{fill:#f8bbb8;}.cls-232{fill:#f48680;}.cls-233{fill:#881c1b;}.cls-234{fill:#f5938f;}.cls-235{fill:#f8bcbb;}.cls-236{fill:#6b1310;}.cls-237{fill:#f26b67;}.cls-238{fill:#bd682b;}.cls-239{fill:#f6b0b1;}.cls-240{fill:#f18584;}.cls-241{fill:#f69b9b;}.cls-242{fill:#f26863;}.cls-243{fill:#f37d78;}.cls-244{fill:#f37b75;}.cls-245{fill:#b62825;}.cls-246{fill:#77321c;}.cls-247{fill:#89432e;}.cls-248{fill:#d27a62;}.cls-249{fill:#943620;}.cls-250{fill:#b24026;}.cls-251{fill:#dbc1b6;}.cls-252{fill:#ded5ca;}.cls-253{fill:#e2d4c4;}.cls-254{fill:#957938;}.cls-255{fill:#cfac9c;}.cls-256{fill:#7a6f38;}.cls-257{fill:#d1b3a3;}.cls-258{fill:#512711;}.cls-259{fill:#ca967f;}.cls-260{fill:#942b1f;}.cls-261{fill:#bb997e;}.cls-262{fill:#b57c61;}.cls-263{fill:#973620;}.cls-264{fill:#d1bfb3;}.cls-265{fill:#ddc1bc;}.cls-266{fill:#e57e78;}.cls-267{fill:#681713;}.cls-268{fill:#7b211c;}.cls-269{fill:#c94c2e;}.cls-270{fill:#841919;}.cls-271{fill:#912a1e;}.cls-272{fill:#bd6128;}.cls-273{fill:#792420;}.cls-274{fill:#361212;}.cls-275{fill:#9d5a4a;}.cls-276{fill:#ceb7ab;}.cls-277{fill:#9f4a24;}.cls-278{fill:#caa187;}.cls-279{fill:#d5a185;}</style></defs><g id="Layer_2" data-name="Layer 2"><g id="Layer_1-2" data-name="Layer 1"><path class="cls-1" d="M149.51,2.08h1.89a5.35,5.35,0,0,1,2.06-.93,8.64,8.64,0,0,1,3,.11c5.95,3.33,12.3,6.11,16.52,11.85a2.9,2.9,0,0,1-.16,2.2,3.43,3.43,0,0,1-2.59,1.28C165.4,12.51,161.12,8,154.55,6a26.75,26.75,0,0,0-12.39-.85,64.13,64.13,0,0,0-7.78,1.43c-12.79,3.21-21.59,11.4-28,22.53a11.51,11.51,0,0,1-1.26,1.76c-1.75,2-3.2,2.3-4-.76,5.32-12.48,14.62-20.81,27-25.89,1.39-.43,2.75-.93,4.13-1.39,2.62-.58,5.19-1.77,8-.77l4.25,0A4,4,0,0,1,149.51,2.08Z"/><path class="cls-2" d="M95.41,185.32c-6.33-1.87-11.48-5.95-16.41-9.93a18.16,18.16,0,0,1-6.55-13.23c.9-1.71,3.43-1.29,4.19-3.2a1.79,1.79,0,0,1,1.61,1.11c1.26,6.49,3.71,12.2,10.09,15.33a8.09,8.09,0,0,1,1.7,1.21c1.87,2.7,5.07,3.95,7.09,6.49C98,185,97.92,186.09,95.41,185.32Z"/><path class="cls-3" d="M146.65,146.16c-.08,4.61,2,8.89,1,13.8-2,10-7.63,17-16.17,22.06-.94-.41-1.58-1-1.16-2.14,1.17-1.83,3.39-2.3,4.86-3.74a30,30,0,0,0,8.75-13.5,11.74,11.74,0,0,0,.28-7.69c-1-5.86-1.72-11.8-4.56-17.18-.58-1.44-1.47-2.94.58-4,3.51.35,4.19,3.38,5.52,5.8C146.31,141.73,147.39,143.82,146.65,146.16Z"/><path class="cls-4" d="M55.59,133.25c-.38.94-1.27.94-2.06,1.13-2.14,2.41-5.25,2.25-8,3.05a20,20,0,0,1-2.44.13c-2.22.06-4.44,0-6.66-.09-2.61-.9-5.69-.26-7.91-2.43L22.4,132.3a1.18,1.18,0,0,1,.3-1.52c1.79-1.17,3.8-.86,5.77-.88,3.67,1,7.73-1.36,11.21,1.29-.74,3.21-4,.2-5,1.76,4.37.2,8.6-2.23,13.29-1.75,2.28.85,4.86.29,7.09,1.46Z"/><path class="cls-5" d="M68.35,149.17v-9a1.89,1.89,0,0,1,1.35-2.24c1.34,0,1.89.91,2.3,2.12.07.55.84-.62.34-.18-.25.23-.38.13-.39-.29,0-2.51,0-2.51,2.14-2.91,1.86,3.77-.4,7-1.28,10.44-.43,1.82.44,3.18,1.5,4.51a8.43,8.43,0,0,1,1.88,4c.31,2.11-.09,4.25-2.29,4.88s-2.34-1.8-3.22-3.05c-1.09-1.55-.05-3.62-1.24-5.14C67.89,151.65,68.84,150.16,68.35,149.17Z"/><path class="cls-6" d="M22.61,131.3l-.21,1c-4,.28-5.89-3.38-8.89-5-1.12.32-1.69-.22-1.93-1.26l-2.1-2c-.87-.56-2.11-.34-2.78-1.33-1.14-1.54-2.62-2.8-3.79-4.34a9.78,9.78,0,0,1-.7-1.17C1.46,114.88-1,113,.42,110.06a3.37,3.37,0,0,1,3.37.79c4.22,7.66,10.5,13.37,17.4,18.52A3.25,3.25,0,0,1,22.61,131.3Z"/><path class="cls-7" d="M69.44,152.27c1.68,1.37.88,3.8,2.24,5.31.68.77.68,2.63,2.27,1.92a2.73,2.73,0,0,0,1.37-3c-.41-1.93-1-4.2-2.8-5-2.66-1.19-1.83-2.62-1-4.32,3.26-3.25,4.26-.69,5.21,2-.1,3.27,2.16,6.58-.09,9.83.28,3.29-1.29,4.09-4.19,3.1C69.71,159.39,69.28,155.92,69.44,152.27Z"/><path class="cls-8" d="M95.41,185.32c1.66,0,1.94-.76,1-2.06.51-.47,1.28-.9,1.76-.49,4.27,3.68,9.4,1.67,14.14,2.21a4.43,4.43,0,0,1,2.19.88,1.08,1.08,0,0,1,.08,1.45C108,188.84,101.46,189.24,95.41,185.32Z"/><path class="cls-9" d="M130.5,180.08c.33.65.66,1.29,1,1.94a48.75,48.75,0,0,0-13.89,4.27c-1.41-2.06-1.36-2.78.73-3.86,1.56-.8,3.29-1.28,4.91-2C125.66,180.57,127.91,176.89,130.5,180.08Z"/><path class="cls-10" d="M123.54,181.23a7,7,0,0,1-4.31,2c-1.61.29-2.72,1.14-1.64,3-.73,1.17-2,.78-3,1,0-.38,0-.75-.07-1.12-1.46-2.94.55-4.2,2.62-5.45C119.3,180.37,121.53,179.41,123.54,181.23Z"/><path class="cls-11" d="M64.51,144.09c1.8.83,2.17,2.36,2,4.14l-1,1C63.77,147.81,64.75,145.82,64.51,144.09Z"/><path class="cls-12" d="M11.58,126.07l1.93,1.26c-.62,1.5-2,.6-3,.93C10.54,127.36,10.65,126.52,11.58,126.07Z"/><path class="cls-13" d="M48.61,4.33l2.87-1.21C58.67,1.41,65.81-.64,73.34.19c1.51.12,3.33-.22,3.24,2.22a3.63,3.63,0,0,1-1.35.83c-4,.71-8,.18-12,.39-3.53.1-6.83,1.21-10.14,2.29-3.72.47-6,3.59-9.19,5a3.2,3.2,0,0,1-2.11-.25,1.62,1.62,0,0,1-.63-1.21,5.61,5.61,0,0,1,2-2.85C44.74,5.41,46.39,4.19,48.61,4.33Z"/><path class="cls-14" d="M133.51,5.29l8.94-1.1a1.62,1.62,0,0,1,2.5.51c1.09,4.37-3.25,3-4.83,3.91-2.57,1.56-2.63,3.1-1.83,5.2.74,1.94,2.07,3.12,4.06,1.18,1.27-1.23,2.56-2.1,4.32-.92.25,4.48-3.38,6.6-5.78,9.48-3,.82-5.6,1.89-7.72,4.69-2.49,3.29-4.71,1.06-6.26-1.67-.15-2.88,1.93-4.61,3.41-6.61a1.91,1.91,0,0,0,.32-.71,3.24,3.24,0,0,0-.67.64,22.35,22.35,0,0,1-3.41,3c-3.43.54-4.52,3.58-6.3,5.87-1.34.61-2.92.26-4.19,1.35s-3.36,2.39-4.84.68a5.92,5.92,0,0,1-.8-6.95c3.1-5.74,7.86-9.6,13.7-12.26C127.6,10,131.05,8.38,133.51,5.29Z"/><path class="cls-15" d="M76.56,2.2l1.94-.1A2.94,2.94,0,0,1,81,2.32a38.9,38.9,0,0,1,5.58,3.26,37.33,37.33,0,0,1,4.15,3.9,9.37,9.37,0,0,1,1.17,1.43,19.28,19.28,0,0,0,1.33,2,23,23,0,0,1,1.92,2.36c.83,1.46,1.53,3,2.31,4.48.4.78.81,1.55,1.22,2.33,1.27,2.66,3,5.15,2.84,8.31,1.2,2.55,2,.37,2.88-.25,1.5,1.36,1.12,3,.56,4.58a47.32,47.32,0,0,0-1.74,26.08,11.26,11.26,0,0,0,5.49,8.06,1.9,1.9,0,0,1-.51,2.53c-1.61.6-3.66-1.82-5,.75-.33.54-.68,1.07-1,1.6a11.49,11.49,0,0,1-1.69,2.76,2.44,2.44,0,0,1-1.28.22c-2.77-1.45-.82-5-3.05-6.73,2-1.71,3.66-3.41,1.85-6.35-.8-1.29-.37-2.86.37-4.21.58-1.06.62-1.85-.9-1.93-1.57-.87-3.32-.46-5-.72-3.77-2.77-3.81-3.73-.42-8.59,1.21-.62,1.71.61,3,1.19C95.05,43.9,93.46,39,92,34c-.54-1.87-1.67-3.63-.93-5.71,3.34-2.28,3.57-5.09,1.83-8.58C90.28,14.42,86.8,10,81.49,7.08,79.57,6,77.06,5.37,76.63,2.6Z"/><path class="cls-16" d="M108.51,69.21c-4.09-.84-6.54-2.51-6.27-7.54.22-4-2.15-8.09-1.71-12,.51-4.45.42-9.2,2.46-13.41,1-2,1.79-3.91,1.45-6.16l1-1c4.17-1.08,4,2.12,4.31,4.56.24,1.74-.41,3.55,2.73,3,3-.53,3.18,2,3.26,4.26a15.26,15.26,0,0,1-3.56,8.29c-3.41,1.94-1.94,6.6-5.12,8.26,2.07,3.06,9.67-3.86,7.61,5.06a14.25,14.25,0,0,1-.39,1.46C113.15,66.68,113.78,71.24,108.51,69.21Z"/><path class="cls-17" d="M114.56,41.34c-.26-2.39.48-6-3.87-2.56-1.49,1.16-2.4.36-2.38-1.94,0-2.74,2-6.67-2.91-7.66C111,16.81,120.91,9.45,133.51,5.29c-.2,4.74-4.8,6-7.56,7-2.94,1.05-4.8,3.49-7.85,4.21s-7.19,9.1-6.84,11.75c.4,3.1,2.52,2.9,3.52,1.46,1.73-2.5,3.75-1.35,5.72-1.45,1.36-.14,1.4,1,.78,1.37-2.81,1.72-2.5,4.51-2.8,7.13C117.41,38.46,117.32,41,114.56,41.34Z"/><path class="cls-18" d="M144.5,5.21a2.23,2.23,0,0,0-2.05-1c8.18-2.8,15,.72,21.37,5.1,2.55,1.75,5.6,3.52,6.5,7a1.39,1.39,0,0,1,.42,1.31,2.71,2.71,0,0,1-2.62,2.15c-3.61-1.57-7.69-2.59-8.53-7.36a8.38,8.38,0,0,0-5.19-3.3c-1.85-.28-3.24,2.38-5.29.83.79-2.34.75-4.06-2.53-3.67A2.6,2.6,0,0,1,144.5,5.21Z"/><path class="cls-19" d="M170.34,17.24a1.44,1.44,0,0,0,0-.94c.46-1,1.36-1.08,2.27-1.19l2.06,3.08c1.35,1.06,2.14,2.29,1.17,4a2.17,2.17,0,0,1-2.14.45C171.9,21.28,170.28,19.77,170.34,17.24Z"/><path class="cls-20" d="M117.5,181.22c-1.42,1.4-3,2.73-3,5l-2-.09a3.31,3.31,0,0,1-1-2.73c-1.77-4.76-3.31-9.59-4.76-14.47a87.36,87.36,0,0,0-5-14.13c1.3,9.83,5.32,18.54,9.53,27.19-1.19,3.94-6.77,5.58-9.4,2.62-3.38-3.8-8.44-4.62-12.4-7.36l-1-1c-4.67-3.55-3.17-10.12-6.91-14.18-.68-.74.25-1.86,1.06-2.51a2.24,2.24,0,0,1,2.76-.15,14.57,14.57,0,0,1,3.15,3.17c1,1.16,1.41,2.61,2.6,4.69-.45-4.63-2.38-8.25-1.56-12.16A42.16,42.16,0,0,0,89.92,144c-.32-2.59.38-4.5,3.21-5.08a13.05,13.05,0,0,1,6,7.66c.57,2.17,1.41,2.94,3.64,3.09,2.82.19,2.78-1.76,3.26-3.45a26.39,26.39,0,0,1,.85-2.88c1.14-4.32-2.31-7.67-2.49-11.71a7.49,7.49,0,0,1-.16-3.55,6.48,6.48,0,0,1,3.39-2.62c2.75-1.09,4.77-.67,5.21,2.66.23,1.72,1.65,1.74,2.81,2.16a5.24,5.24,0,0,1,2.33,1.63c.84,1.95,2.71,3.32,3.13,5.51-.69,2.55-1.72,4.8-5,4.31-2.46-.37-2.06,1.69-2.51,2.86-1.46,3.83-1.06,8.19-4,12.56,2.53-2.58,4.82-3.91,6-6.45a2.47,2.47,0,0,1,3.5-.84,3.88,3.88,0,0,1,1.9,5c-2.26,2,.66,2.9,1,4.37.47,2.23,2.85,4.43-.28,6.49-2.62.06-3.91-1.44-4.67-4.67-.9,4.25.58,8.57-3.86,11,2.52,2,5.77,3,6.08,6.42A2.57,2.57,0,0,1,117.5,181.22Z"/><path class="cls-21" d="M76.64,159.06c.38-3.33-1.68-6.39-1.06-9.74-1-5.76.24-11.3,1.62-16.83.12-1.28.29-2.54,1.41-3.39,1.57.14,2.33-1.44,3.69-1.8,1.71-.37,3.35-.37,4.69,1,2.1,4-.14,8,0,12-.12,3.94.46,7.9-.46,11.8a2.7,2.7,0,0,1-2.06,1.93c-2.5.45-4.32,1.16-3.87,4.42.21,1.52-1.34,2.05-2.86,1.7Z"/><path class="cls-22" d="M77.69,160.17c.72-.59,2.16-1.51,2.06-1.73-3.39-7.52,2.91-4.46,5.65-5.23,2.88,2.85,4,6.08,2.17,10-.63-.75-1.24-1.5-1.89-2.23-.79-.9-1.56-1.79-2.84-.55-1.52,1.47.24,1.76.78,2.6,1.39,2.2,4.25,4.16,1.66,7.29,2,1.5,3.55,3.23,3.19,6C82.52,174.94,77.78,167.86,77.69,160.17Z"/><path class="cls-23" d="M89.43,177.22c2-.16,5.1-3.47,5.28,1.82,0,.37.72,1.1.87,1,4.87-1.82,5.83,2.67,8.51,4.72,1.58,1.2,5.68,1.67,6.42-2.64,1.1-.6,1.41.42,1.95,1,0,1,.05,2,.07,3-5.59.23-11.3,1.24-16.13-2.84C93.74,181.64,91.12,180,89.43,177.22Z"/><path class="cls-24" d="M117.5,181.22c2.14-4.4-.6-6.21-4.14-6.91-2.82-.56-3.48-1.6-1.12-3.13,3-2,3.94-4.05,2.68-7.44-.59-1.59,1.12-2.55,2.08-4,1.59,1.86,1.6,5,4.56,5.41,3,1.73,3.5,5.22,5.4,7.73,3.31,2.11,3.19-1.56,4.18-2.77s-.42-1.87-1.63-2a7.61,7.61,0,0,1-3.3-.59,37.16,37.16,0,0,1-5.7-12.47c-.16-2-.12-4.44-2.66-4.64-2.15-.18-2.31,1.92-2.38,3.65,0,.87-.33,2-1.32,1.65-3.29-1-3,2.22-4.94,4.62.88-8.22,2.84-14.9,4.81-22.08,3.5,5.08,4.87,1.51,6.48-1.1a30.71,30.71,0,0,0,14.37,1.05c4.32,1.5,2.87,5.43,2.1,7.63-1.81,5.13,1.74,7.21,4.51,9.45,4.38,3.55,4.6,3.35.87,7.39-.8.86-2,1.73-2,2.81.37,4.79-3.4,7.73-4.93,11.66-1.3,1.56-3.27,2-5,2.89-2.63-1.5-4.37,2.38-7,1.15C121.53,180.7,119.51,182.23,117.5,181.22Z"/><path class="cls-25" d="M135.46,177.19c-.21-.25-.63-.67-.59-.72,3.71-4.7,2.51-11.81,7.71-15.77.89-.67,2.52-1.8,1-2.52-3.11-1.46-5.19-4.07-7.89-5.8-1.91-1.22-2.63-1.67-1.22-3.49,2.36-3,2.06-6.32,1.05-9.7-1.73-3.24-3.87-6.26-5.28-9.68-.27-1.65.17-3,1.9-3.47a2.74,2.74,0,0,1,3.37,1.44c.74,2.06,2.68,2.29,4.1,3.31a3.1,3.1,0,0,1,1,3.27c-1.84,1-.51,2.06-.13,3.12a43.67,43.67,0,0,0,4.93,18C147,164.72,142.12,171.37,135.46,177.19Z"/><path class="cls-26" d="M140.64,134.06c-.51-.87-1.27-1.65-1-2.8,1.68-.79,3.21-.11,4.74.51a57.2,57.2,0,0,0,17.54,3.08c2.25.09,4.72-.61,6.55,1.46-1.32,2.45-3.6,3.77-5.93,5.05a5.05,5.05,0,0,1-6.32,0c-3.85-.37-7.81.26-11.56-1.11A13.78,13.78,0,0,0,140.64,134.06Z"/><path class="cls-27" d="M145.44,155.2c-4.36-5.26-6.94-11-4.93-18C144.16,142.64,144.49,149,145.44,155.2Z"/><path class="cls-28" d="M61.55,132.19c-2,.13-3.84,1.49-6,1.06l-.09-.08c.56-2,1.2-4.11-.36-6a2.81,2.81,0,0,1,1.34-2.46,5.43,5.43,0,0,1,2.16-.62c6,.8,6.92,2.13,4.77,7a3.69,3.69,0,0,1-1.13,1Z"/><path class="cls-29" d="M57.52,139.06c-.93.59-1.79,1.41-3.05.95a6.32,6.32,0,0,1,1.06-3.77A2.88,2.88,0,0,1,57.52,139.06Z"/><path class="cls-30" d="M39.47,131.05c-3.66-.42-7.32,1.62-11,0-3.58-.54-7.12-1.39-10-3.6-1.69-1.28-4.72-2.38-2.69-5.63,4.5.75,9-.28,13.4-.06-4.4-.44-9.08,1.22-13.57-.4-5.71,0-9.51-3.74-9.77-9.57a1.77,1.77,0,0,1,1-.89c2.07,1.39,4.11,2.24,6-.34A7.12,7.12,0,0,1,15.6,110a30,30,0,0,0,8,0,6.69,6.69,0,0,1,3.58.69c1.23.75.32,2.22,1.37,3.56,3.91-4.42,8.14-2.92,11.95,0,1.84,1.42,1.05,3.63-.36,5.34a4,4,0,0,1-2.67,1c-.58.08-.21.71,0,.35.36-.53,1.34-.42,2-.63,4.87-1.73,9,2.54,13.89,1.57,1.23-.24,1.42,1.12,1.17,2.18a6,6,0,0,1-2.24,3.75C48.07,129,44.27,132,39.47,131.05Z"/><path class="cls-31" d="M6.53,111.15c.51,5.3,4.14,8.94,9,9.09a1.32,1.32,0,0,1,0,1.92c.63,4.39,4.81,4.56,7.63,6.31A53.28,53.28,0,0,0,28.49,131l-5.88.27C14.52,126.25,7,120.68,3.53,111.21A1.85,1.85,0,0,1,6.23,110,1.07,1.07,0,0,1,6.53,111.15Z"/><path class="cls-32" d="M39.47,131.05c4.36-1.29,8.44-3.47,13-4a1,1,0,0,1,1.32.31c.35,4-2.54,4.38-5.38,4.81-4.56.43-9.06,1.76-14,.76C35.92,131.38,38.5,133.16,39.47,131.05Z"/><path class="cls-33" d="M48.44,132.16c1.34-1.95,5-1.48,5-4.84a1.23,1.23,0,0,1,1.86-.15c3.32,1.9,4.68,3.86.18,6C53.16,132.77,50.55,134.21,48.44,132.16Z"/><path class="cls-34" d="M78.36,132.2q-1.38,8.56-2.78,17.12c-.33-2.68-1.58-3.58-4.06-2.11.78-3.65,2.78-7.09,2-11-1.76-1.58-1.88-3.84-2.47-5.91a2.84,2.84,0,0,1,1.39-2.47C76,127.11,77.07,129.8,78.36,132.2Z"/><path class="cls-35" d="M71.41,130.17a8.55,8.55,0,0,1,2.09,6c-1.72,1.34-.56,3.36-1.21,5.08-1.28-.69-1.07-2.66-2.62-3-.83-2.12.79-3.95.67-6C69.86,131.12,69.87,130.26,71.41,130.17Z"/><path class="cls-36" d="M.67,110.17v-2.92a2.3,2.3,0,0,1,2.46-.72,6.19,6.19,0,0,1,3.52,3l-.18.65c-1.24-.36-2.07.43-2.94,1.08Z"/><path class="cls-37" d="M2.5,121c.38-1,.75-2,1.13-2.92,1.49,1.15,3.05,2.23,3.78,4.08C5.55,122.74,4.21,121.12,2.5,121Z"/><path class="cls-38" d="M202.56,111.08q-1.06,5.11-2.12,10.24c-.76,1.21-.81,2.8-2,3.76l0,.17a14.69,14.69,0,0,1-4.72,7,37.35,37.35,0,0,1-12.47,5.35c-4,.94-8,1.06-11.64-1.23l-1.08,0A89.73,89.73,0,0,1,147,134.25c-1.53-.34-2.89-.48-3.6-2a4.3,4.3,0,0,1,2.78-1.46c3.88-.92,7.27,1.35,11,1.68,8,2.45,16.09,1.11,24.14,1,6.18-1.43,11.64-3.85,14.22-10.26a8.54,8.54,0,0,1,1-1.86c1.32-3.43,4.42-6.92-.73-10-.94-.56,0-1.45.7-1.82,1.41-.74,3.15-1.06,3.53-3,.23-1.48.17-3,1.2-4.29a1.59,1.59,0,0,1,1.52-.17C205.93,105.12,203.79,108.09,202.56,111.08Z"/><path class="cls-39" d="M43.51,10.29c2.9-1.86,4.84-5.4,9-5.08A47.35,47.35,0,0,1,64,4.14c4.07,0,4.67,1.08,3.67,5.64-1.48,1.5-1.8,2.86.49,3.91a2.08,2.08,0,0,1,.57,2.49A6.33,6.33,0,0,1,67,17.9c-3.57,2.74-7.1,3.82-10.55-.18A3.38,3.38,0,0,1,55,16.27a6.54,6.54,0,0,1-.31-1.46c-.14-1-.18-2.07-1.54-2.14a1.26,1.26,0,0,0-1.15.81c-.46,1,.19,1.53.88,2a3.67,3.67,0,0,1,1.45,2,5.75,5.75,0,0,1,0,2.3,10,10,0,0,1-.4,1.45c-.76,2.15-1.9,4-4.41,4.23-1.76.19-2.73-1-3.41-2.43-1.06-2.19-.86-4.19.59-5.26a4.9,4.9,0,0,1-2,.59c-2.23.17-4.62.15-5.53-2.31s.93-4,3-5C42.65,10.79,43.08,10.54,43.51,10.29Z"/><path class="cls-40" d="M76.63,2.6C84.21,7,91.5,11.68,94.7,20.59c1.68,4.69,1.11,6.56-3.08,7.62a2.65,2.65,0,0,1-1.88-.88C86.16,20.6,83.31,13.42,78.29,8c1.76,2.89,5.18,5.34,5.17,9.67-1.46,3.4-4.57,5.36-6.95,8-2.17-.42-2.62-2.12-3-3.91a9.34,9.34,0,0,0-1.69-5.57c-1.4-2.4-2-5-1.09-7.59,1.15-3.11-.66-3.49-3-4.18C66,3.88,63.27,5.54,62.53,2.35,67.23,2.33,71.94,1.89,76.63,2.6Z"/><path class="cls-41" d="M43.51,10.29c-.67,2.18-4.55,3-3.34,5.56,1.28,2.73,4.61.7,7.39,1.84.5.5-.77.92-.87,1.57-.33,2.16.17,4.5,2.08,5.12,2.22.73,3.49-1.19,4-3.4a8.86,8.86,0,0,1,.82-1.81c2.84.45,2.89,2.48,2.64,4.67-2.28,2.88-5.7,4.37-8.29,6.88A4.36,4.36,0,0,1,45,30.17a5,5,0,0,1-2.12-2,12.63,12.63,0,0,1-.81-3.42C42.27,21.13,38.77,21.5,37,20a6.63,6.63,0,0,1-.5-4.36c.85-2.59,2.26-4.65,5.09-5.37Z"/><path class="cls-42" d="M62.53,2.35c2.36,1.51,5.06.8,7.59,1.17,1.57.23,3.95.53,2.68,2.84-2.51,4.55-.94,8.25,1.74,11.79,1,1.28.31,2.12-.05,3.15-3.26.24-3.82-3-5.74-4.46-.1-.22-.19-.43-.28-.65a2,2,0,0,0-1-2c-1-1.16-1.79-2.37-1-4C68.4,6.41,67.64,4.85,63,5.4c-3.46.4-7-.09-10.53-.19C55.53,3.23,59,2.73,62.53,2.35Z"/><path class="cls-43" d="M41.55,10.29c-1.37,1.63-2.73,3.27-4.1,4.91-1.72,2.42.13,5.71-1.92,8.06-1.34.31-2.67.6-3.89-.38a2.06,2.06,0,0,1-.51-1.23c1.18-2.91,2.43-5.79,3.79-8.62a13.23,13.23,0,0,1,5.4-4.1,1.3,1.3,0,0,1,1.21.46A5.41,5.41,0,0,0,41.55,10.29Z"/><path class="cls-44" d="M177.64,25.23c-.82,5.35,1.47,10.69,0,16l-.29-.11a9.5,9.5,0,0,0-4.63,4.64c-.49,1.16-1.7,2.94-3,.32,1.34-7,2.82-14.08,2.57-21.32a2.92,2.92,0,0,1,1.34-2.51l2-.14c1.54-.15,2.25.52,2,2.08Z"/><path class="cls-45" d="M160.49,11.23c.67,4.67,5.08,5.6,8,8,1.2,1.51.28,2.82-.39,4.16A6,6,0,0,1,166.57,25c-3.61,1-5.42,4.42-8.38,6.29-1.46.93-2.87,2-3.58-.65.64.2-.57-.06-.08-.47.34-.29-.1-.67-.23-.34-.7,1.79-1.43,3.51-3.62,3.92-3,.08-5.93-2.43-9.14-.09-1,.72-2.31-.72-3.32-1.51-1.23-1-2-.15-2.76.72s-1.66,2-3.18,1.65c-2.35-2.74-6.87-3.76-6.75-8.47a1.51,1.51,0,0,1,2,.25c1.86,1.91,3.33,5.08,5.53-.14a5.89,5.89,0,0,1,7.51-2.9,1.68,1.68,0,0,1,1.32-.31c1.73.94,3.23,2.71,5.21,0s4.75.17,7,.06a1.88,1.88,0,0,0-.35-2.45c-2.46-3.08-1.38-5,2.15-5.3C158.6,14.91,159.16,12.77,160.49,11.23Z"/><path class="cls-46" d="M125.48,26.29c1.65,3.26,5.72,4.38,7,8,1.16.87,2.24,1.8,2.29,3.41-1.22,2.43-4.31,1.45-5.88,3.25-3.19,3.2-6.8,1.05-10.26.79-2.06-1.46,0-3.79-1.14-5.44-1.4-3.57.38-5.95,3-8-.18-4.14,2.08-5.87,5.94-6C128,24,126.94,25.19,125.48,26.29Z"/><path class="cls-47" d="M144.5,5.21c2.38.34,4.95-.74,7.26.93-.3,1.68-2.68,2.18-2.21,4.14.35,2.34-.23,4-3,4-1.39-.07-2.62.07-3.34,1.55s-1.55,3.14-3.73,1.79c-3-1.86-3.23-4.74-3-7.86.14-2,.91-2.2,2.86-2.23C141.08,7.48,142.78,6,144.5,5.21Z"/><path class="cls-48" d="M146.56,14.25c1.76-.75,2.05-2.6,3-4l4.85-3c1.1,1,.63,2.17-.1,3.07a157.59,157.59,0,0,1-10.93,12.6,1.83,1.83,0,0,1-1.83.39l-1-.08Z"/><path class="cls-49" d="M125.48,26.29c.59-1.31,1.28-2.58,1-4.1a7.83,7.83,0,0,1,3-3c1.13-.49,1.56.26,1.95,1.09-1.18,2.08-3.23,3.59-3.9,6Z"/><path class="cls-50" d="M131.41,20.26l-1.95-1.09a5.2,5.2,0,0,1,3.22-2.75C133.91,18.4,131.66,19,131.41,20.26Z"/><path class="cls-51" d="M47.53,30.22c2-2.89,4.48-5.14,8-6,4.21,1.38,4.62,6.05,7.33,8.5-1-1.69-2.33-3.47-1.43-5.83,2.43-2.83,6.47-2.13,9.25-4.2,2.4-1.55,2.79.56,3.41,2a33.79,33.79,0,0,0,4.4,7.6c-.49-2.69-2.94-4.39-2-7,0-4.27,5.5-4.34,6.11-8.12,4.18.75,4.25,4.51,5.22,7.46.34,1,.18,2.2,1.16,3a2.89,2.89,0,0,1-1.1,3.05c-1.76,2.49-.13,8.72,2.81,10.6a10.82,10.82,0,0,1,1.68,1c1.4,1.89,1.91,3.82.24,5.84.2,2.72-4.86,6,1,8.11-.2,2.91-3.18,3.73-4.4,5.87a1.84,1.84,0,0,1-1.29.43c-4.4-3-4.95-8.72-8.82-12.07-.62-1.38-.94-2.93-2.18-4-2.09-3.54-4.29-7-6.12-10.7,1.41,2.57,2.14,5.51,4.2,7.7a2.66,2.66,0,0,1,.47,3.16c-.57,1.19-.63,2.74-1.78,3.5-3.41,2.28-2,3.4,1,3.62,2.37.17,3.8.57,3.58,3.38S79.76,59.45,81.5,59c3.2-.34,3.07,1.79,2.92,3.94-3.14,5.84-3.4,6-7.82,1.76-1.82-1.74-4-1.32-6-1.89-2.8-1.39-4.33-4-6.22-6.33-4.74-5.77-9.15-11.81-13.58-17.82C49,36.27,46.81,33.74,47.53,30.22Z"/><path class="cls-52" d="M128.48,40.21c1-3.05,4.54-1,6-3.05-.31-1.72.83-2.34,2.12-2.85a5.09,5.09,0,0,1,5,1.27c.26,3.25.28,6.55,1.52,9.66-1.07,3.3-5.75,3.91-5.88,7.9,1.33,3.24.21,5.24-3,6.62-3,1.29-6.24,2.07-8.77,4.2-1.14,1-3.51,1.57-1.87,3.9a3,3,0,0,0,1.94-1.43,11.63,11.63,0,0,1,.8-1.05c1.3-1.21,2-3,3.64-3.87,2.45-.32,4.87-.81,7.29-1.23a2.88,2.88,0,0,1,3.12,1c.72,1.19-.21,2.21-.95,3.06A68.14,68.14,0,0,1,127,75.48c-4.21.65-6.82,3.65-9.55,6.48a4.51,4.51,0,0,1-1.13.86,4,4,0,0,1-3.44-.09c-1-.77-.51-1.69-.21-2.57.59-1.68-.77-1.27-1.57-1.47A2,2,0,0,1,110,78c-.34-.54-.56-1.41-1.15-1.5-5.25-.75-3.29-3-1.1-5.23l.81-2c5,.71,3.21-4.06,4.91-6,2.9.46,3.73-2.13,5.29-3.63,2.62-5,6.14-9.49,9-14.37.75-1.38,2.1-2.62,1-4.43A5.48,5.48,0,0,1,128.48,40.21Z"/><path class="cls-53" d="M92.56,48.11c-.14-2,.23-4.12-1.18-5.88-2-3.77-4.4-7.43-4-12,.5-.92,1.28-1.75,1-2.95a1.56,1.56,0,0,1,2.18-.08l1,1q2.19,8,4.35,16a7,7,0,0,1,.48,2.38c-.21,2,1.17,5.16-1.16,5.79C92.52,53.09,94.43,49,92.56,48.11Z"/><path class="cls-54" d="M97.5,57.22c.85-.16,1.12-2,2.31-.95a2.33,2.33,0,0,1,.27,3.18c-1.19,1.39-1.85,2.59-.79,4.36,2,3.37,1.8,5.85-2.8,6.37.42.87-.13,1.21-.81,1.48a2.48,2.48,0,0,1-1.28-.29C93.3,70.45,92.61,69,91,68.75A3,3,0,0,1,89.84,68c-1-1.78-2.66-3.38-1.44-5.7l.16-.17C92.39,62,95.48,60.62,97.5,57.22Z"/><path class="cls-55" d="M112.65,82.1l3.72-.08c1-.2,1.45.36,1.77,1.16A3.34,3.34,0,0,1,116,87c-2.7.22-4.89,1.76-7.26,2.84a2.8,2.8,0,0,1-1.38-.37,2.71,2.71,0,0,1-.61-2c.72-2.1,2.23-4.41-1.41-5.39a5.17,5.17,0,0,1-1.64-1.22,8.22,8.22,0,0,1-2.16-4.28c0-1.13,0-2.26,0-3.39l.77-1c1.23-.72,2.75-.28,2.68.81-.27,4.24,3.48,3.78,5.58,5.22a3.37,3.37,0,0,0,.84,0C113.2,79,111.46,81,112.65,82.1Z"/><path class="cls-56" d="M97.5,57.22c-2.16,6.64-2.49,6.82-9,4.93.21-3.19,3.26-4,5-5.93C95.06,55.67,96.9,54,97.5,57.22Z"/><path class="cls-57" d="M110.58,78.15c-3.2.14-6.76.86-6.23-4.41.12-1.16-1.06-1.43-2-1.62,1-3.84,2-4,5.38-.9.13,1.6-2.07,2.78-.84,4.56C108.65,76,108,73,110,73.42,111.06,74.88,110.16,76.61,110.58,78.15Z"/><path class="cls-58" d="M102.42,76.17c0,1.73,1.42,2.75,2,4.17-1.26,1.29-3,1-4.53,1.41a4,4,0,0,1-1.34-.14,26.16,26.16,0,0,1-3.3-2.23A2.5,2.5,0,0,1,95,78.1a2.19,2.19,0,0,1,1.86-1.72c.86-.21,1.72.34,2.59,0l1.12-.33A1.38,1.38,0,0,1,102.42,76.17Z"/><path class="cls-59" d="M99.42,76.38l-2,.84c-1.55-1.68-2.89-3.43-1.88-5.92l.92-1.12C101.94,70.14,97.24,74.88,99.42,76.38Z"/><path class="cls-60" d="M102.42,76.17l-1.88-.12c.09-1-.13-2.21,1-2.88C103,73.83,102.29,75.12,102.42,76.17Z"/><path class="cls-61" d="M118.49,41.22c3.21-1.57,6.9,1.72,10-1l0,0c.77,1.85-.54,3.11-1.28,4.52-3.17,4.48-6.59,8.8-9.1,13.73-1.37,1.46-1.83,4-4.6,3.8l.61-3.28c-2.57.35-4.94.69-7.31,1s-3-1.38-1.64-2.51a8.5,8.5,0,0,0,3.6-7c0-1.43,1.72-1.15,2.82-1.29C114.08,46.68,114.9,42.75,118.49,41.22Z"/><path class="cls-62" d="M118.49,41.22c-1.43,3.4-4.14,5.69-6.88,8q1.47-3.93,3-7.84,1.47-2.55,3-5.09C121.45,37.19,117.32,39.73,118.49,41.22Z"/><path class="cls-63" d="M113.53,62.28q2-2,3.94-4.07c1.66-.3,2.39.32,2,2-1,1.25-1.94,2.51-2.94,3.74-1.59,2-2.58,1.43-3.14-.78A9.24,9.24,0,0,0,113.53,62.28Z"/><path class="cls-64" d="M167.44,23.14c.36-1.3.71-2.61,1.07-3.91l1.83-2c.78,1.89,3.33,2.63,3.29,5.05.22,8.48-.2,16.88-3.3,24.92a3,3,0,0,1-1.17.86,7.11,7.11,0,0,1-1.44.31c-7.95.85-13.77-3.47-19.46-8.09-.23-2.18,1.23-3.11,2.88-3.9,2.09-.22,3.81-1.81,6-1.65,2.51,2.69,4.25-.5,6.37-.84,1.41.26,2.34,1.85,4.1,1.43.15-1.89-1.88-3-1.8-4.8C165.76,27.93,168.08,25.86,167.44,23.14Z"/><path class="cls-39" d="M141.54,23.29c4.29-5.35,9.78-9.74,12.86-16.06,1.91,1.5,4.48,2,6.09,4-.1,2.59-.1,2.59-7.37,6.32.08,1.2,1.26,1.44,1.87,2.17,1.09,1.32,2.16,3,1.15,4.53-1.35,2-3.12.37-4.31-.47-4.86-3.46-4.67,2-7.06,3.77Z"/><path class="cls-65" d="M130.5,129.2c2.61,2.85,5.32,5.66,5,10-1.41.3-2.81.7-4.24.87-3.94.46-7.86.7-10.76-2.86-1.39-1.39-3.54-2.32-3-4.89a1.71,1.71,0,0,0-.29-.93c-.6-.69-.14-1.85-1.08-2.38-.15.75.15,1.63-.62,2.2-1.73-.12-4.18.49-3.91-2.38.37-3.9-2.16-2.62-4.06-2.61-.82-1.75-.3-3.33.59-4.87,2.27-1.18,3.11,1.43,4.8,1.79a1.74,1.74,0,0,0,2.17-.56c2.21-2.8,3.81-2.21,4.62,1.05.66,2.67,3.45,2.88,5,4.51C126.24,130.55,128.8,127.58,130.5,129.2Z"/><path class="cls-66" d="M93.51,139.2c-2.12,1.12-2.83,2.44-2.29,5.13a18.4,18.4,0,0,1-.79,10.88c-2.76-.6-2.65-3.05-3-5-.65-3.22-.34-6.52-.31-9.78-.12-3.05.6-6.05.54-9.09.41-1.73,2-2.76,3.24-2.25,5.07,2.16,6.84-1.5,9-4.62a1.83,1.83,0,0,1,.81-.52c3.14,1.56,2.3,5,3.45,7.44.24,2.45,2.56,4.34,2,7-3.7,2.56-4.3,2.31-6.09-2.56-.54,3.55-.53,3.46-4.31,3C95.41,138.81,94.46,139.87,93.51,139.2Z"/><path class="cls-67" d="M93.51,139.2c2.64,0,1.13-2,1.48-3.21,2.32.3.72,3.06,2.47,3.69,2.49-1.31.79-4.51,2.41-6.13,2.87.62-.32,8,5.63,4.62,2.56.89,2.69,2.77,2,5-.16,1.31,0,2.74-.55,3.88-.69,1.52-.11,4.63-1.18,4.39a26.93,26.93,0,0,0-7-.42,1.21,1.21,0,0,1-.75-.51C100.06,145.29,94.39,143.2,93.51,139.2Z"/><path class="cls-68" d="M112.46,183.11l-1.95-1c-7.54-13.79-10.28-22-9.58-30.59C107.66,161.9,108.27,173.2,112.46,183.11Z"/><path class="cls-69" d="M88.4,140.23c.37,5-.71,10.26,2,15-.4,4.82,2.77,9.19,1.89,14.33-3.42-.91-3-4.43-4.75-6.37,0-3.47-1.33-6.66-2.17-10q.09-6.5.19-13A1.88,1.88,0,0,1,88.4,140.23Z"/><path class="cls-70" d="M126.5,173.31c-2.82-2-3.32-5.39-4.94-8.11,2.22-3.54-1.6-5.49-2.25-8.28-.32-1.36-1.42-2.63,1.2-1.82,2.86,3.62,4.2,8,6.1,12.12C128.09,169.28,130.31,171.35,126.5,173.31Z"/><path class="cls-71" d="M103.49,132.2l-3-8c-.85-1-1-2.2.14-3,1.44-1,2.41.16,3.34,1.11a6.88,6.88,0,0,1,1.23,2.11,4.45,4.45,0,0,1-.66,3.84l.85,2.95C105,131.86,104.59,132.72,103.49,132.2Z"/><path class="cls-72" d="M103.49,132.2l1.92-1c.93,3.14,1.44,6.43,3.19,9.3.78,1.29,1.18,2.55-1.07,2.67-.49-1.73-.68-3.58-2-5C107,135.45,102,134.93,103.49,132.2Z"/><path class="cls-73" d="M104.56,128.22c0-1.34,0-2.68-.08-4a6.21,6.21,0,0,1,2.65-3.85c.84-.47,1.55-.4,1.38.88a8.23,8.23,0,0,1-1,5Z"/><path class="cls-74" d="M115.49,131.2c.57-1.81-2.65-2.71-1.15-4.65.22-.29,1.23-.15,1.78,0,2.49.9,1.45,3.19,1.83,4.92,0,.22-.3.52-.47.78Z"/><path class="cls-75" d="M81.51,128.21c-.49.71-.64,2.16-2,.93a3.06,3.06,0,0,1-.94-2c.07-2.51,1.14-4.73,2-7s2.25-4.64,3-7.12A3.64,3.64,0,0,1,85.41,111c2.27,1.07,4.45,2.77,7.13,1.06,1,1.84,2.21,3.46,4.73,2.87,1.46.9,1.4,2.7,2.35,3.91a1.8,1.8,0,0,1,0,1.33,2.81,2.81,0,0,1-2.48,1c-1.74-.43-3.52-1.12-4.92.76-.19.26-.54.63-.77.57C86.25,121.19,84.71,126.12,81.51,128.21Z"/><path class="cls-76" d="M81.51,128.21c.51-2.25,3.41-3.31,3-6a1.14,1.14,0,0,1,.28-.91c2.16-1.65,5.19,3.09,6.89-.71,1.9-4.25,3.86-.7,5.8-.36,1.69,2.54-.14,3.48-2,4.4-2.22,1.11-4.74,1.21-7,2.09a10.47,10.47,0,0,1-2,1.52Z"/><path class="cls-68" d="M86.45,128.22a2.31,2.31,0,0,1,1.07-2.07c2.64.76,1.91,2.4,1.06,4.07l-.18,10H85.59C85.55,136.2,87.17,132.29,86.45,128.22Z"/><path class="cls-77" d="M79.36,127.27c0,.62.08,1.25.13,1.87-1.4.64-.72,2.05-1.13,3.06-2.12-1-3-3.82-5.69-4a1.75,1.75,0,0,1-.63-1.94,3.09,3.09,0,0,1,1.41-1.57C76.27,123.59,77.49,126.17,79.36,127.27Z"/><path class="cls-78" d="M126.5,173.31c2.37-2-.14-4.07.11-6.09a19.81,19.81,0,0,1,4.33-.24c2.53.41,3.63,2,1.53,4-1.28,1.22-1.71,2.7-2.57,4a2.52,2.52,0,0,1-3.48.84C125.15,175.13,126.23,174.16,126.5,173.31Z"/><path class="cls-27" d="M132.52,160.16c-.3-1.09-.66-2.17-.87-3.28a1.22,1.22,0,0,1,1-1.47c.73-.2,1.52.09,1.63.69.61,3.33,3.88,6.33,1.3,10.07C133.59,164.64,133.76,162,132.52,160.16Z"/><path class="cls-79" d="M132.52,160.16c2.26,1.37,2.92,3.55,3,6C131.1,165.89,130.54,163.66,132.52,160.16Z"/><path class="cls-80" d="M130.5,129.2c-2-.52-4,4.1-6,0a5.73,5.73,0,0,1,.54-3.31c.07-1,2.67-2.12-.15-2.85-1.73-.44-3.07-1.18-3.66-3a1.5,1.5,0,0,1,.4-1.22c1.37-.89,3-.12,4.46-.85a4.19,4.19,0,0,1,2-.42c4.23,1.07,7.66,3.2,9.47,7.36a8.72,8.72,0,0,0,4.64,4.29c1.41,1,4,.26,4.36,2.92l-3.08,0a6,6,0,0,1-3.81-1c-1.93-.74-5.1.72-5.1-3.41C134.53,126.38,132.27,126.87,130.5,129.2Z"/><path class="cls-81" d="M55.32,127.17l-1.86.15-1-.28L54,122.62c-5.29,2.81-9.44-3.06-14.5-1.46-1.16-.68,2.15-1.32,0-2,.66-1.61,1.9-4.6-.12-4.42-2.89.27-4.85-5-7.84-1-.1.13-.24.23-.35.35-1.28,1.31-2.91,3.09-4.59,1.8-1.94-1.49.7-3.06.93-4.69.79-3.16,3.52-2.86,5.81-3.08,2.09-.2,4.24.23,6.25-.7a6.81,6.81,0,0,1,8.32,3.11c1.67,1.23,3.08-.25,4.58-.5,1.94-.32,3.84-.91,5.47.78,2.21,3.36-1.43,3.74-2.7,5.32-2,2-5.13-.23-7,1.93,1.76,1.4,3.83.68,5.74.93s3.94-.23,4.81,1.78-1.11,3.21-2.2,4.58Z"/><path class="cls-82" d="M56.57,125.3c1.82-5,1.82-5-3.92-5.15A65.54,65.54,0,0,1,46,119.3c-.05,0-.13-.34-.06-.42a5.46,5.46,0,0,1,.68-.68c5.12-1,10-3.07,15.1-4.07,3.38-.67,6,.36,6,4.52-.58,4.39-4.33,4.61-7.47,5.64a10.52,10.52,0,0,0-1.82.88Z"/><path class="cls-83" d="M65.62,129.29c-.71,1.16-1.44,2.27-3.1,1.74,1.73-4.69,1.27-5.35-4.13-5.86l1-1.06c3.38-.84,6.56-1.31,6.93,3.61A5.26,5.26,0,0,1,65.62,129.29Z"/><path class="cls-84" d="M23.57,111.17c-2.71.65-5.42.1-8.13,0-1-1.35-3.71.81-4.12-1.9,1.45-1.22,3.07-2,1.68-4.67-1.54-2.92-.27-6.07.83-9A2.9,2.9,0,0,1,15,94.51c4-.72,8-2,12.16-1.4,4.52,2.65,4.62,3.12,1.56,7.48-3.84,2.1-8.1-.06-12,1-.62.34.32,1.22,0,.62-.11-.24,0-.34.09-.44,1.89-1.33,3.81-.11,5.72-.07,1.31.06,2.63,0,3.94.12,4.66.33,5.17,1.09,4,5.86C28.65,110,25.57,109.49,23.57,111.17Z"/><path class="cls-85" d="M23.57,111.17c.95-3,3.68-2.56,5.94-3,4.45-3.23,7.14-3.22,10.05,0-1.42,2.1-3.41,1.12-5.27,1a9.86,9.86,0,0,0-6.77,1.93Z"/><path class="cls-86" d="M15.53,122.16c0-.64,0-1.28,0-1.92,2.46,1.42,5.16.84,7.78.92a46,46,0,0,1,7.12.45C25.49,121.91,20.57,124,15.53,122.16Z"/><path class="cls-87" d="M11.45,109.24c.86,1.62,3.15.27,4,1.93l-2.9.13a3.86,3.86,0,0,1-5,0l-1-.14-.06-1,0,.08C7.77,108.09,9.41,107.64,11.45,109.24Z"/><path class="cls-88" d="M7.5,111.3h5c-.21,1.64-.9,2.89-2.76,2.74C8.2,113.92,7.66,112.72,7.5,111.3Z"/><path class="cls-89" d="M39.49,119.15l2.21.47-2.23,1.54c-1.85-.58-3.58,1.85-5.8.1C35.34,119.45,38,120.77,39.49,119.15Z"/><path class="cls-90" d="M198.41,125.08a5.19,5.19,0,0,1,2-3.76c-.05,1-.09,2-.14,3Z"/><path class="cls-91" d="M14.56,95.26c0,.31,0,.63-.05.94-3.16,2.54-7.37,2-10.84,3.71a3.12,3.12,0,0,1-3-.66c.11-3.35,2.27-6,3-9.15.66-1,.75-2.32,1.42-3.36s1.38-2.12,2-3.21A67.3,67.3,0,0,1,17,72.11a34,34,0,0,1,7.07-3.88,78.4,78.4,0,0,1,12.14-2.35c1.24,0,2.49,0,3.73.1,2.22.06,4.29,1.39,7.21.83-2.59.3-3.31-1.17-4.14-2.49a2.4,2.4,0,0,1,.24-2.07C45.85,61.33,47,64,49,64.54c3.35,2.16,6.95,3.87,10.36,5.9,1.87,1.1,4.46,1.84,4.31,4.84-1.88,1.27-3.53.14-5-.71A30.77,30.77,0,0,0,44,70.92c-8-.63-16.08-1.26-23.13,3.94-6.7,4.39-10.33,11.2-14.64,18.26,2.38.23,4.34-.36,6.15.36A3.72,3.72,0,0,1,14.56,95.26Z"/><path class="cls-92" d="M.7,99.25H3.38c1.41,2.67.76,5.35,0,8l-2.73,0Z"/><path class="cls-93" d="M3.4,107.27c-1.6-2.67-.58-5.34,0-8,3.21-2.82,7.33-2.37,11.13-3-.06,3.52-2.14,6.73,1.14,10.58,1.9,2.22-2.38,2.07-4.2,2.46a7.92,7.92,0,0,0-5,1Z"/><path class="cls-94" d="M182.52,134.25c-7.89,2.05-15.89.59-23.84.71-.72,0-1.45-1.18-2.18-1.82a8.67,8.67,0,0,1,.57-7c1.44-1.24,3.05-1,4.7-.5,4.61,1.43,9.36,2.2,12.27,2.83-4.63-.32-10.62-3.61-17.29-2.88-2.62-.44-3-1.54-1.31-3.67,1.26-1.61,3.35-2,4.76-3.42-1.43-1.92-3-1.35-4.46-.53-4.21,2.4-8,3-11.3-1.55-1.18-1.63-5.15-.64-4.16-4.38,1-1,2.65-1.78,3.59-1.11,4.48,3.2,9.21,1.19,13.85,1.07a9.26,9.26,0,0,1,1.57.21c5,1.31,10.42-.26,15.31,2,2.71,1.53,5.23,1.69,7.81-.49,3.43-2.92,7.59-2.22,11.46-1.46,3.09.61,4.32,5.13,2.43,7.78a10.29,10.29,0,0,1-3.51,2.73c-4.74,1.62-9.58.22-13.61.36,2.79,0,6.28.8,9.84.71,1.31.15,2.87.15,3.37,1.55s-.88,2.3-1.88,3.12A81.46,81.46,0,0,1,182.52,134.25Z"/><path class="cls-95" d="M192.47,122.14a5.49,5.49,0,0,1,2.56-2.27c2.12-1.26.58-2.93.46-4.45a2.17,2.17,0,0,0-2.7-2.19c-3.69.39-7.61-1.32-10.74,2.87-1.79,2.39-5.22,1.38-7.58-.8,1-1.87-.39-1.74-1.53-1.85-3.26-.29-6.55-.4-9.69-1.45-.76-1-1.79-.36-2.72-.4-1.55-.7-3.12-1.2-4.82-.45a8.5,8.5,0,0,1-4.22-.1,4.19,4.19,0,0,1-1.79-1.29c-3.73-5.26-3.44-5.86,3.45-7.15a5.36,5.36,0,0,1,1.44.06,5.94,5.94,0,0,1,2.2,1.07c1.42,1.15,1.9,2,4-.2s6.46-1.59,9.92-1.56a8.39,8.39,0,0,1,2.76.52c.58.33-.08-.2.44.21,1.63,1.25,4.77,1.83,4.39,4-.43,2.56-3.74.84-5.44,1.94,3.22-.74,6.37.33,9.57.68a12,12,0,0,0,5.85.82c-3.94,0-5.73-1.31-3.62-5.28,2.71-3.81,7-4.45,11.08-5.65,1.65-.49,2.36.42,3.09,1.62,1.2,2,1.46,4.33,2.59,6.32.09,3.57-3,2.62-5,3.38,5.08,1.46,5.24,3.29,1.17,11.58C195.85,121.25,194.15,124.06,192.47,122.14Z"/><path class="cls-96" d="M140.5,112.19c1.17,3.23,5.27,2.2,7.21,5.57,1.81,3.14,5.65-.31,8.55-1.74,2-1,5.05-.63,5.9,1.66.93,2.51-1.38,3.25-3.63,3.18.16,1.79-4.85,1.29-1.92,4.31.89-.26,1.09.15.92.93-.16,2.38.39,4.85-1,7-3.49,1.39-6.45-2.69-10-1-1.21-1.86-3.84-.07-5-2a7.93,7.93,0,0,0-1.72-1.75c-2-1.69-1.67-3.88-.76-5.9s2.9-1.87,4.75-1.37c1.12.3,2.26.56,3.59,1-1.41-.94-2.91-1.07-4.16-1.78-2.68-1.55-5.74-2.44-8-4.69a5.55,5.55,0,0,1-.73-1.3c-.79-2.5.78-3.68,2.72-4.29C138.78,109.64,140.47,109.77,140.5,112.19Z"/><path class="cls-97" d="M201.4,107.2a4.19,4.19,0,0,0-.82-.52c-2.75-1-.39-7-6-5.67a21,21,0,0,0-9.1,4.2,3,3,0,0,1-1.48-.68,5.69,5.69,0,0,1-1-1.32c-2.49-5.39-1.2-7.83,4.5-8.27a45.78,45.78,0,0,1,7.94.07c3.08,1.49,7.35,2,6.06,7.19Z"/><path class="cls-98" d="M182.52,134.25c2-3.14,4.92-5.23,8-7.11.58-.35,1.82-.7.8-1.7-.37-.37-1.26-.2-1.91-.28-.68-1.38-.26-2.37,1.26-2.35,1.92,0,3.93-.82,5.76.4C194.77,130.63,188.7,132.51,182.52,134.25Z"/><path class="cls-99" d="M196.47,123.21c-2.33.68-5.52-1.7-7,2-5.56.4-10.83-1.64-16.42-1l.06-2.06h19.38c1.68.35,3.38-2.11,5.06,0Z"/><path class="cls-100" d="M201.49,102.2c.28-4.23-3.71-4.26-6-6-2-1-4.6,0-6.35-1.85a2.21,2.21,0,0,1,0-2.16c3.55-1.41,6.19.56,8.77,2.06a11,11,0,0,1-1.17-4.85,2.07,2.07,0,0,1,.7-1.29c4.7,3.65,3.58,9.28,4.83,14.11C202.07,102.2,201.78,102.21,201.49,102.2Z"/><path class="cls-101" d="M197.53,88.08l-.06,1.17c-2.75,1.78-4.85-.54-7.24-1.14-1.68-.87-3.61-1.49-4-3.76a2.47,2.47,0,0,1,1.08-.89,6.9,6.9,0,0,1,4.72.63c-1.09-1.34-2.68-1.52-4.13-2-3.1-1.22-6.07-2.91-9.59-2.62-3-.36-5.92-.91-8.37-2.85a5.17,5.17,0,0,0-4.11-.87c-4.43.52-8.79,2.25-13.32.67.78-4.83,5.22-3,7.92-4.35a25.55,25.55,0,0,1,7.61.09,3.4,3.4,0,0,1,1.42.91c9.42.75,18.52,2.3,25.25,9.94C196.06,84.52,197.3,86,197.53,88.08Z"/><path class="cls-102" d="M173.49,68.1c-.48,1.1-2.15,1.37-2,2.89-.66.7-1.31,1.4-2,2.09l-1,0A3.33,3.33,0,0,1,167,70.68c.7-2.74,1.66-5.21,5.22-4.9C173.19,66.27,173.84,66.92,173.49,68.1Z"/><path class="cls-103" d="M172.48,66.23c-3,.22-3.81,2.73-4.95,4.87a5.2,5.2,0,0,1-5.19.19,2.24,2.24,0,0,1,.86-2.46,11,11,0,0,0,6.36-6.59c.93-1.13.69-3.72,3.35-2.67a4.82,4.82,0,0,1-.39,3.77c0,.59,0,1.18,0,1.77a.69.69,0,0,1,.23.76C172.66,66.11,172.57,66.23,172.48,66.23Z"/><path class="cls-104" d="M172.52,63.34l-.14-4.2c-.89-1.43-.17-2.4.93-3.26a1.72,1.72,0,0,1,2.07.43l1.1.92Z"/><path class="cls-105" d="M169.48,47.35a1.65,1.65,0,0,1,.85-.14,4.72,4.72,0,0,0,2.15-3.61c.57-3,2.39-3.33,4.86-2.44l.06,3.05a5.73,5.73,0,0,0-1.62,4.3c-.44,3.23-.69,6.63-5.42,5.94A7.86,7.86,0,0,1,169.48,47.35Z"/><path class="cls-26" d="M181.41,47.23a1.67,1.67,0,0,1,0,.86c-2.23,0-2.92,2.44-4.78,3a2.33,2.33,0,0,1-.85-1.08,5.07,5.07,0,0,1,0-2.09c.34-1.14.75-2.23,2-2.69C178.9,46,179.72,47.43,181.41,47.23Z"/><path class="cls-106" d="M177.69,45.25c-.45,1-.91,2-1.37,2.93-1.08.52-1.32-.45-1.79-1a2.7,2.7,0,0,1,2.87-3C177.5,44.56,177.59,44.91,177.69,45.25Z"/><path class="cls-93" d="M71.51,23.19c-2.47,3.41-6.87,2-9.93,4-4-2.13-5.52-5.55-5-10,.68,1.22,3.36-3.16,3.05,1.11-.14,1.77.81,1.79,2.2,1,2.15-1.16,4.4-2.13,6.6-3.18l.09.09C70.71,18.09,71,20.7,71.51,23.19Z"/><path class="cls-107" d="M56.62,17.22c1.18,3.55,2.52,7,5,10C62.8,30,64,32.73,65.23,35.51c-4.74-2.66-6.51-7.54-9.7-11.29a6.24,6.24,0,0,0-2-5c0-.63,0-1.26,0-1.89.42-.8.83-1.61,2-1.16Z"/><path class="cls-108" d="M55.54,16.12l-2,1.16c-.56-1.82-5.8-.14-3.22-4.18.79-1.23,1.81-3.12,3.82-2.36C57,11.8,56.06,14.07,55.54,16.12Z"/><path class="cls-109" d="M66.51,10.24a6.49,6.49,0,0,1,1,4C66,14.13,64.88,13.6,64.67,12,64.5,10.68,65.44,10.36,66.51,10.24Z"/><path class="cls-110" d="M90.58,27.18l-2.18.08c-.92.34-2.06.82-1.8-.9.62-4-1.73-6.58-4-9.23-1.15-4.84-4.78-8-7.43-11.94C83.32,10.32,87,18.75,90.58,27.18Z"/><path class="cls-111" d="M71.51,23.19c-2-1.86-2.37-4.44-3-6.91,3.39,0,3.18,4.26,5.93,5a5.8,5.8,0,0,0,2,3.95c1.22,2.12,2.51,4.21,3.65,6.38.55,1,.85,2.4-.36,3.05s-1.65-.58-2.2-1.4C75.37,30.05,73.27,26.8,72.32,23c0-.07-.31-.13-.45-.09S71.63,23.08,71.51,23.19Z"/><path class="cls-112" d="M47.53,30.22c5.72,12,15.16,21.4,22.9,32,.85,1.94,3.69,3.27,1.9,6.05-4.49-1.1-6.16-5.27-8.66-8.37a122.63,122.63,0,0,1-8.81-12.1c-2.13-3.09-4-6.39-7.26-8.53-2-3.06-4.72-6-2-10Z"/><path class="cls-27" d="M34.45,23.21c2.2-2.22,0-6.08,3-8l.09,5c1.61,1.6.84,3.62.58,5.78,1.92-1.19,3-3.58,5.36-1.73l0,4c.58,4.19,2.33,8.5-1.3,12.24-2.6-2.21-6-3.79-6.13-8,0-1.29-1.47-1.63-2.22-2.47C32.2,27.6,32.08,25.3,34.45,23.21Z"/><path class="cls-99" d="M41.41,40.15c1-.34,2.15-1.13,1.75-2-1.66-3.45.68-6.63.35-9.95l2.05,1c-.65,3.81,1.34,6.81,3,9.9a11.47,11.47,0,0,0-3.81,5.12c-1.22.86-2.28.46-3.28-.4a4.15,4.15,0,0,1-1.28-3.34A.86.86,0,0,1,41.41,40.15Z"/><path class="cls-113" d="M43.48,24.25A2.94,2.94,0,0,0,40,26.3c-.56,1.52-1.63,1.39-2.79.93-2.24-.88,0-1.73,0-2.6.1-1.48.21-3,.32-4.43C41.44,18.73,42.85,20.92,43.48,24.25Z"/><path class="cls-114" d="M40.37,40.24c.41,1,.81,1.93,1.22,2.9l-.15.69c-2.64,3.88-5.44,1.11-8.2.22a5.55,5.55,0,0,1-2.37-2.67A8.64,8.64,0,0,1,30.4,40c-.27-1.68-.89-3.29-1.07-5-.12-1.25-.13-2.49-.14-3.74a18,18,0,0,1,.33-3.81,3.83,3.83,0,0,1,1.84-2.41c.1-.88.21-1.76.31-2.63l2.78.79a8.75,8.75,0,0,0,0,7A31.68,31.68,0,0,0,40.37,40.24Z"/><path class="cls-115" d="M151.48,37.22a6.53,6.53,0,0,0-3,3c-1.2,5.73-5.76,9.08-9.4,13a2.33,2.33,0,0,1-3.55-.17c.65-4.12,4.39-5.45,7-7.78.89-3.55,3.1-6.4,5.08-9.37.83-1,1.38-2.35,2.84-2.71,1.71-.71,2.13-2.37,2.78-3.84.52-1.16-.19-3.64,2.11-2.91s-.43,2.42.07,3.68C154.07,32.48,154.3,35.71,151.48,37.22Z"/><path class="cls-116" d="M151.48,37.22c1.43-2.29,1.2-5.52,4-7.06,2.26,1.06,4.28-1.06,4.6-1.94,1.19-3.24,4-3.16,6.34-4-1.37,4.94-3.4,9.37-8.84,11.06C155.45,35.69,154,38,151.48,37.22Z"/><path class="cls-117" d="M157.55,35.25c4.16-2.71,5.77-7.47,8.84-11.06l1.05-1.05c3.52,2.88-.73,4.69-1,7.06-1.09,1.26-1.6,3-3,4C159.74,39,159.52,39.06,157.55,35.25Z"/><path class="cls-118" d="M150.49,33.23l-2,3c-2.34-1.22-4.67-.89-7,.06a8.33,8.33,0,0,0-5-1.05c-1.08-2.3.21-3.33,2.16-4,1.16.41,2.38,2.56,3.25,1.42C145.27,28.09,147.64,33.17,150.49,33.23Z"/><path class="cls-68" d="M138.6,31.19c-.67,1.36-2.21,2.25-2.16,4l-2,2a2.8,2.8,0,0,1-2-2.92c1.9-.68,2.05-2.87,3.47-4S138.28,29.33,138.6,31.19Z"/><path class="cls-119" d="M72.54,68.26c.38-2.4-3.31-3.38-2.11-6.05,2.21.27,5-2,6.55,1,2.44,4.8,4.48,3.31,6.59-.16,3.19.56,3.78,4.71,7.06,5.15.26,0,.51,0,.76,0A1.78,1.78,0,0,1,92,70.11a5.39,5.39,0,0,1-2.2,2.56c-1.15.58-2.28,1.2-3.38,1.88a5.12,5.12,0,0,1-4.33-.45c-1.23-2.32-3.8.82-5.1-1.22-.89-1.86-2.64-2.83-4.18-4Z"/><path class="cls-120" d="M77.53,46.21c2.56.3,1.82,2.3,2,3.83-.28,3.58,3.44,6.34,2.06,10.14-5.13,1.66-5.6,1.15-4.5-5a37.61,37.61,0,0,0-3.83,0c-2.63.25-2.86-1.84-3.38-3.48-.68-2.17.52-2.41,2.42-2.3,2.13.12.55-2.75,2.2-3.24A12.45,12.45,0,0,0,77.53,46.21Z"/><path class="cls-121" d="M81.57,60.18c0-3.52-5.08-6-2.06-10.14,3,1.8,4.41,4.88,5.89,7.84.81,1.61,1.2,3.5,3,4.44.74,2,1.49,3.95,2.23,5.93-4.93,1.82-4.6-3.59-7.06-5.15C82.83,62.17,85,59.24,81.57,60.18Z"/><path class="cls-122" d="M87.37,30.21c1.49,4,4,7.59,4,12-2.65.1-4.89.08-4.16-3.86.24-1.29-1-3.14-2-4.32C82.19,30.53,84.9,30.5,87.37,30.21Z"/><path class="cls-123" d="M77.53,46.21c-1,3.15-2,1.55-3,0-1.53-3-3-6.08-4.65-9-.84-1.48-2.32-3.39-.56-4.28,2-1,2.36,1.75,3.07,3C74.19,39.32,75.81,42.79,77.53,46.21Z"/><path class="cls-124" d="M135.54,53.09c5.63-.16,6.21-6.06,9.74-8.65,1.36-1,2.15-2.79,3.21-4.22,3.27,0,5.84,2.43,7.95,4,3.93,3,7.87,3,12.14,3,1.25,2.34-.53,4-1.23,6a34.73,34.73,0,0,1-3.86,5.69c-1.43,1.75-2,4.14-3.89,5.54a2.08,2.08,0,0,1-1.35,0c-2.48-2.73-.33-5.65-.38-8.49,0-1.84.88-3.49,1-5.61-2.36-.37-4,1.58-6,1.83-3.48,1.15-5.45,3.34-5.06,7.21-1.37,2.82-5.4,3.23-6.08,6.7-2.86,3-5.54,6.14-9,8.42-1.92,1.25-3.92,2.71-6.27.73,3.89-5,9.93-7.9,13.52-13.71-3.79-.79-7.06,2-10.55.73-.89,1.4-2.1,2.57-3,4l0,0a8.7,8.7,0,0,1-3,3c-1,1.18-1.54.64-2.18-.37-.88-1.37-.42-2.33.53-3.49,3.16-3.9,8-5,12.2-6.78C137.82,56.9,137,55.42,135.54,53.09Z"/><path class="cls-125" d="M126.49,75.21c3.9.45,6.33-2.09,8.88-4.37,2.07-1.84,4.09-3.73,6.13-5.61,2.35,3.2,5.12,4.3,8.83,2.07a3.82,3.82,0,0,1,4.2-.23c.57,1.47-.45,2.25-1.33,3.09-5.3,3.45-10.18,7.65-16.54,9.18-3.85,1-8.14-.32-11.76,2.28-.9.65-2.22-.21-3.32-.46-1.7-.23-3.38,1.46-5.08,0,2.15-2,4.35-3.9,6.43-5.94C124.18,74.05,125.3,74.61,126.49,75.21Z"/><path class="cls-118" d="M141.47,36.24c2.31-3.09,4.63-4.15,7-.06-1.93,3.07-3.16,6.59-5.91,9.13C140.91,42.45,139.18,39.59,141.47,36.24Z"/><path class="cls-126" d="M119.5,60.24a3.37,3.37,0,0,0-2-2c1.67-5.53,5.68-9.57,9-14.07,1.11-.43,1.7.13,2.1,1.08C126.54,50.84,122.16,55,119.5,60.24Z"/><path class="cls-68" d="M128.53,45.22l-2.1-1.08,2.08-3.91C131.5,41.05,131.51,42.05,128.53,45.22Z"/><path class="cls-127" d="M112.65,82.1c-1-.41-1-.41-1.23-4,1-1.4,2.37-1.49,3.19-.26C116,80,112.82,80.44,112.65,82.1Z"/><path class="cls-128" d="M116.5,81.21l4.87-1.95c1.48,1.66.11,2.55-1,3.53a3.07,3.07,0,0,1-2.74.45L116.37,82C116.41,81.75,116.45,81.48,116.5,81.21Z"/><path class="cls-129" d="M126.49,66.23c.07-2,1.39-3.11,3-4C129.45,64.29,128.06,65.33,126.49,66.23Z"/><path class="cls-129" d="M123.51,69.18a6.4,6.4,0,0,1,3-3C126.4,68.1,125.46,69.15,123.51,69.18Z"/><path class="cls-130" d="M95.57,71.3c.63,2,1.25,4,1.88,5.92a2,2,0,0,0-2,.82c-.89.55-1.28-.09-1.68-.71a8.6,8.6,0,0,1-.33-4.3A4.66,4.66,0,0,1,94,71.69l.55-.47Z"/><path class="cls-131" d="M91.37,70.15c0-.64,0-1.28,0-1.92,3.19-1.25,2.08,2,3.15,3l-.23-.2H94A2,2,0,0,1,91.37,70.15Z"/><path class="cls-132" d="M105.54,81.39c4.62,1,4.92,2,1.84,6-1,.82-.75,2.51-2,3.19a19.85,19.85,0,0,1-5.91-.12c-.47-.34-.44-1.3-1.06-1.23-.35,0,0,.8,0,1.25,1.9,3.25-1.45,6.28-.36,9.49a15.75,15.75,0,0,1-.47,2.8,3.85,3.85,0,0,1-1.07,1.9,6.7,6.7,0,0,1-4.35.69,6.34,6.34,0,0,1-1.42-.38,5.25,5.25,0,0,1-2.54-2.55,2.85,2.85,0,0,1,.88-2.6,3.32,3.32,0,0,1,2.47-1c.59,0,1.52.33,1.67-.33.44-2-1.41-2.58-2.51-3.62a8.64,8.64,0,0,0-4.82-3c-1.24-1-.92-2.47-1.31-3.73a5,5,0,0,1,.17-2.1,2.62,2.62,0,0,1,.85-1.12,2.07,2.07,0,0,1,2,.26c3,4.57,3,4.57,7.63-1.35,1.43-1.36,3.41-1.34,5.08-2.1S104,84.11,105.54,81.39Z"/><path class="cls-133" d="M117.68,83.24l1.9-.87c.89.29,1.82,0,2.72.21,2.5.75,5.26-1.58,7.64.63,2.7,7,1.91,8.36-5.23,8.86a5.1,5.1,0,0,1-4.24-1c-1.2-1.89-3.22-2.26-5.17-2.77a1.4,1.4,0,0,1,.19-1.86A3.53,3.53,0,0,0,117.68,83.24Z"/><path class="cls-134" d="M99.46,90.15c2-1,3.92-1.4,5.86.08.86,0,1.38-.83,2.18-1l1,0a6.1,6.1,0,0,1,.86.9,2.24,2.24,0,0,1,.14,2.4,14.66,14.66,0,0,1-2,1.7,39,39,0,0,0-10.14,5.86c-3-3.32,1.71-6.54.13-9.84A1.29,1.29,0,0,1,99.46,90.15Z"/><path class="cls-135" d="M105.54,81.39c-.39,1.24.85,3.09-1.1,3.7-2.28.71-.64-2.31-2.13-2.49l-1.83-.19c-.93.13-1.27-.3-1.14-1.19,1.43-1.88,3.41-.59,5.11-.88Z"/><path class="cls-136" d="M108.63,90.19a2.94,2.94,0,0,1-.09-.93c1.71-2.41,3.87-3.76,6.95-2.86,0,.61,0,1.23,0,1.85C113.79,91.05,111.26,90.8,108.63,90.19Z"/><path class="cls-137" d="M107.5,89.22c-.14,1.61-.57,2.57-2.18,1,.29-1.24-.21-3.06,2.06-2.89Z"/><path class="cls-138" d="M99.34,81.22l1.14,1.19-5.15,1.93c-1.67,1.08-2.94.6-3.92-1-.34-1.62.66-2.37,1.92-2.94a7.92,7.92,0,0,1,3-.14,3.54,3.54,0,0,1,2,.85C98.71,81.16,99,81.19,99.34,81.22Z"/><path class="cls-139" d="M96.54,81.16l-3.11,0a3,3,0,0,1-.74-3,2.77,2.77,0,0,1,.62-1.11.77.77,0,0,1,1.07.22l1.1.75c0,.44.08.88.13,1.31C96.22,79.8,97.06,80.13,96.54,81.16Z"/><path class="cls-140" d="M96.54,81.16l-.93-1.81c1.29,0,3-.7,2.79,1.76Z"/><path class="cls-141" d="M166.39,53.14l2.19-5.89a2.1,2.1,0,0,1,.9.1c1.55,2.11.93,4.54,1,6.87-.32,3.37-.09,7-4.16,8.57-1.25,1-2,2.59-3.77,2.85a3.91,3.91,0,0,1-3.1-1.43c.25-2.35,2.19-3.81,3.06-5.83C165.67,58,165.48,55.18,166.39,53.14Z"/><path class="cls-142" d="M163.43,34.16c0-2.11.45-3.86,3-4a20.92,20.92,0,0,1,1.33,2.63c.45,1.28,3.82,1.61,1.53,3.67-1.83,1.64-3.68.54-5.11-1.1A10.08,10.08,0,0,1,163.43,34.16Z"/><path class="cls-75" d="M108.51,121.23c-2.93-1.15-1.26,3.92-4,3-.33-.33-.65-.67-1-1a4.86,4.86,0,0,0-3.9-3.88l-.19-.2c-.9-1.33-.2-2.3.72-3.22,2-.85,3.77-1.81,4.25-4.26a3,3,0,0,1,2.83-2.33c2.15-.39,3.49,1.75,5.5,1.74.78-.29,1.35-1,2.14-1.2a5.3,5.3,0,0,1,3.2,1c2.8,2.22,4.5,4.61,1.18,7.76-2.81,1.2-4.15,4.16-6.73,5.62C110.34,124.33,110.27,121.64,108.51,121.23Z"/><path class="cls-113" d="M112.5,124.21a9.57,9.57,0,0,1,6-6c1.06-.49,1.74.07,2.34.85.45,3.11,4.83,3.66,4.67,7.17,0,1.09.16,2.27-1,3-5.77-3.69-5.77-3.69-6.77-7.56C115.83,122.22,116,127.21,112.5,124.21Z"/><path class="cls-118" d="M99.6,119.31c4.39-1.81,3.34,1.84,3.9,3.88-.91-.28-1-1.92-2.18-1.54s-.69,1.61-.81,2.5a6.68,6.68,0,0,1-2.36,4.79c-1.76,1.35-3.2,5.92-6.27,1.09-.29-.45-2.16.1-3.3.19-.26-1.38.4-3-1.06-4.07,1.89-2.36,5-1.18,7.3-2.47,1.57-.87,3-1.37,2.69-3.47Z"/><path class="cls-143" d="M85.54,111.32l-1.06,1.89a5.24,5.24,0,0,1-3.28,1.31c-2.61.07-3.85,2.38-5.78,3.57-1.24.75-2.39,1.68-3.68,2.31-1.87.91-3.48.77-4-1.72a3,3,0,0,1,1.94-2.84c3.15-.7,5.2-2.77,6.72-5.47.67-1.67-.39-2.18-1.64-3-2.8-1.75-2.37-3.28.69-4.25a5.48,5.48,0,0,1,2.75.34c2.63.63,1.43,5,4.86,4.87a5.12,5.12,0,0,1,1.33.3,3,3,0,0,1,1.44,1.41A1.22,1.22,0,0,1,85.54,111.32Z"/><path class="cls-144" d="M79.36,127.27c-1,.29-2.19,1.46-2.75-.33s-1.63-1.77-3-1.69a10.51,10.51,0,0,1,4.55-8.37c1.28,1,4.67-.11,3.35,3.41Q80.44,123.79,79.36,127.27Z"/><path class="cls-145" d="M97.42,115.25l-4.25,2c-1.15-1.74-.45-3.41-.7-5-1.33-1.42-1.29-3-.61-4.7a2.47,2.47,0,0,1,2-1.19,3.11,3.11,0,0,1,1.47.3c1.24.87,1.47,2.41,2.35,3.53s2.88,1.79,2.18,3.89A2.55,2.55,0,0,1,97.42,115.25Z"/><path class="cls-146" d="M92.52,107.29c0,1.67,0,3.34,0,5-1.75,0,0,3.51-2.84,2.72a5.59,5.59,0,0,1-4.09-3.7c0-.34,0-.67-.05-1,0-3,2.82-1.91,4.21-2.91C90.63,107.11,91.55,106.66,92.52,107.29Z"/><path class="cls-77" d="M81.53,120.29c.61-2.64-3.37-.8-3.06-3.14-.69-2.08.81-3,2.14-4l3.87,0C85.3,116.33,82.14,117.78,81.53,120.29Z"/><path class="cls-147" d="M97.42,115.25a1.74,1.74,0,0,1,2.08-.87c.91.34,1.66.77,1,1.93l-1.12,2.8C96.2,119.14,98.05,116.55,97.42,115.25Z"/><path class="cls-148" d="M80.61,113.19l-2.14,4q-2.43,4-4.84,8.1l-1.15,1c-2.72,0-4.11,3.08-6.86,3.06v-1.06c.49-6.17,6.37-7.55,9.85-11.07C76.85,115.41,78,113.33,80.61,113.19Z"/><path class="cls-40" d="M120.52,119.23l-2-1c3.15-2.83.68-4.85-1-7,1.45-5,2.12-5.58,6.2-3.77,2.87,1.29,3-.21,3.42-2.17.47-2.18-1.19-4.22-.29-6.39a4.13,4.13,0,0,1,3.75-2.29,89.07,89.07,0,0,1,10.76,1.66,21.67,21.67,0,0,0,7.19,1c2.6-.17,4.9.61,5,3.91-.23.22-.47.63-.71.64-4.86.05-5.16,2-2.29,5.35-2.53,2.1-5.26,1.09-8,.51-1.9-.41-3.71-1.21-5.76-.7-3.57.89-3.88,2-1.3,5.2,0,.33,0,.67,0,1,.33.91-.22,1.33-.91,1.69a4.8,4.8,0,0,1-4.06-.66c-.66-.31-1-1.06-1.8-1.22a2.62,2.62,0,0,1,.35.88,2.29,2.29,0,0,1-1.57,2.3l-1,1c-1.67.68-3.33-2.43-5,0h0C121.19,119.69,120.86,119.68,120.52,119.23Z"/><path class="cls-149" d="M130.45,115.18a7,7,0,0,0,4.08,1c3.27.09,5.57,3,8.89,3,2.34,1.73,7.09.46,7.11,4.22,0,1.08-5.16-.67-7.88-1.37-2.26-.59-2.81.27-3.2,2.3-.48,2.47,1.66,3.79,2,5.82-2.41-1.13-4.38-2.42-5.33-5.3-1.3-4-5.34-5-8.65-6.71l1-2.93A1.25,1.25,0,0,1,130.45,115.18Z"/><path class="cls-150" d="M120.52,119.23c.32,0,.65,0,1,0a5.73,5.73,0,0,0,3.11,2.91c1.24.48,3.07-2,3.64.48.42,1.81-1.35,2.76-2.75,3.63C124.05,123.74,121,122.4,120.52,119.23Z"/><path class="cls-150" d="M121.49,119.2c-.56-1.3-.48-2.08,1.29-2,1.61.09,2.39,1.51,3.71,2C124.82,121,123.16,118.48,121.49,119.2Z"/><path class="cls-151" d="M70.5,116.3a3.26,3.26,0,0,0-2,1.84c-.73.63-.09,2.43-1.86,2.16-.28-5.49-.81-5.85-6.11-4.62-4.58,1.07-9,3.19-13.87,2.52.62-2.79,2.82-2.72,4.87-2.44,1.16.16,2.19.66,3.05-.53,5.15-1.37,9.06-5.74,14.83-5.81,2,0,1.75-2.41,1.76-4-.07-1.48-.74-3,.27-4.4a3,3,0,0,1,3.07-.22c1.1.89,2.24,1.77.88,3.32-.73.2-1.76.14-1.64,1.3a1.41,1.41,0,0,0,1.64,1.37c5.78-.87,2.9,2.25,2.06,4.43A10.89,10.89,0,0,0,70.5,116.3Z"/><path class="cls-152" d="M39.56,108.21c-3.34-2.2-6.7-.6-10,0,1.13-3.77.22-5.76-4.18-5a20.74,20.74,0,0,1-3.86,0,1.65,1.65,0,0,1,1.84-1.81c4.6.09,9.12-1.14,13.73-.72.57.32,0-.32.44.16,3.51,3.9,7.35,5.74,12.34,2.48A1.4,1.4,0,0,1,52,104.43c.23,2.31,2.39,2.55,3.64,3.75-1.77,3.31-5.67,2.29-8.22,4C45.82,108.9,43.23,107.48,39.56,108.21Z"/><path class="cls-153" d="M72.51,105.21c.61,4.43-.88,6.61-5.77,6-3.36-.42-5.25,3.73-8.83,3.38a12.51,12.51,0,0,0-3.38.64c.34-1.81,4.35-.91,3-4-1-1.31-.36-2.17,1-2.31a15.61,15.61,0,0,0,4.41-1.54C66.34,107.8,68.73,103.41,72.51,105.21Z"/><path class="cls-154" d="M62.49,108.2c-.37,3.13-4.36.29-5,3-2.78-1.31-5.25-.23-7.6,1.14-1,.55-1.69.87-2.46-.15,2.1-2.54,5.8-1.87,8.11-4,1.55-1.53,3.47-1.76,5.51-1.6A2.06,2.06,0,0,1,62.49,108.2Z"/><path class="cls-155" d="M66.59,120.3l1.86-2.16c.35,1.87,1.27,2.73,2.88,1.21a7.14,7.14,0,0,1,4.14-2.18c-2.29,4.57-8.15,6-9.85,11.06-.11-4.3-3.38-3.86-6.19-4.12C61.29,121.84,64.82,122.72,66.59,120.3Z"/><path class="cls-156" d="M61.51,107.22c-2,.27-3.85,1.37-5.95,1-2.61-.15-6.44,1.06-4.26-4.26-2.09.83-3.82,1.63-5.62,2.23-3.12,1-5.9,1.22-6.57-3.12-.06-.37-1.06-.59-1.63-.88-.76-1.41-1.88-1.5-3.36-1.24-1.9.32-3.95.84-5.63-.77.39-2.13,3-4.64-1-6,.36-3.64,3.24-3.19,5.6-3.31,7.6-.37,15.23.51,22.82-.52,4.67-.92,6.34,1.73,6.86,5.76-1.9,2-4.56,1.57-6.91,2.13-2,.22-3.93,1.44-6,.44C48.46,95.55,51,95.32,53,94.28c-2.45.23-4.72.13-7,.32-.48,1.81,2.19,3.17.52,5a4.42,4.42,0,0,1-2.77.66c4.06,0,8-1,11.88-1.89a9,9,0,0,1,6.61,1.3C63.66,102.31,64,104.9,61.51,107.22Z"/><path class="cls-157" d="M56.49,91.22c-3.86,2.08-8,.69-12,.94s-8.22.07-12.34,0c-1.86,0-3.67,0-4.65,2l-12.91,1.1a2.21,2.21,0,0,1-2.12-1.13c.54-2.62,3-2.27,4.71-3,8.07-1.06,16.13-2.3,24.3-2.35,4.09,0,8.19-.37,12.26.4A4.22,4.22,0,0,1,56.49,91.22Z"/><path class="cls-74" d="M28.49,100.17c2.93,1,6.72-1.92,9,2-5.35.09-10.76-.79-16,1-2-1.25-4.25-1.12-6.59-1.21C19.11,99,24,100.76,28.49,100.17Z"/><path class="cls-158" d="M56.49,91.22a2.21,2.21,0,0,1-2-1,42.69,42.69,0,0,1,3-3.35c2.81-1.62,5.78,2.6,8.54-.25.5-1,2.16-1.19,1.75-2.75-2.11-3.19-5.94-2-8.73-3.43a4.82,4.82,0,0,1-2.77-2c-.28-3.55-1.84-4.14-4.6-2a7.2,7.2,0,0,1-2.48,1.45c-2.8.25-5.34-.86-8-1.55-1.44-.6-3.09-.85-4-2.4.51-5.06,3.87-4.46,7.32-3.68,4.67-1,8.84.51,12.94,2.56,1.89.94,3.9,1.67,5.85,2.49,4.15-.18,6.22,3.7,9.64,4.94a6.8,6.8,0,0,1,1.51,2.53c.76,2.93,1.85,5.83.82,8.93A9,9,0,0,1,73.53,94c-1.61,2.93-7.38,6-10.32,5.6a4.16,4.16,0,0,1-.68-3.37C60.24,94.87,60.85,90,56.49,91.22Z"/><path class="cls-159" d="M16.53,92.24c-.91,1.61-3.16.32-4.09,1.89-2.49-.47-6,1.77-7.28-.54-1.12-2,2.09-4.07,3.24-6.2A38.18,38.18,0,0,1,19.51,74.22c2.13.57,3.76-.77,5.49-1.54,2.41-1.08,4.44-1,6.1,1.19,1.85,2.4.87,4.23-1.26,5.79-1.55,1.16-3.71.07-5.17,1.4,2,.69,3.1,2,2.62,4.11-.45,2-1.34,3.93-3.58,4.18C21,89.66,18.88,91.18,16.53,92.24Z"/><path class="cls-160" d="M72.41,80.32c-2,1.35-2.69-.72-3.87-1.54-1.72-1.2-3.48-2.34-5.23-3.51-4.09-4.54-10.45-5.57-14.88-9.6-1.16-1.92-3.73-2.8-4-5.38-.15-1.49-.23-3.08,1.11-4,1.57-1.15,2.81,0,3.8,1.09a16.14,16.14,0,0,0,3.07,2.41,15.43,15.43,0,0,1,2.38,1.71c1.2,1.1,2.32,2.29,3.52,3.4,3.18,4.52,8.92,5.73,12.54,9.68,1.07.93,2.39,1.58,3.09,2.9A2.21,2.21,0,0,1,72.41,80.32Z"/><path class="cls-21" d="M29.47,79.14c1-1.57,2.8-2.83.56-5-2-2-3.41-1-5.13.15s-3.61,1.6-5.39,0c7.6-5.94,16.14-6,25-4-3.27-.4-5.94.27-7,3.87-2.51,1.91-.46,2,.94,2.31s2.69.59,3.84,1.4a15.88,15.88,0,0,1,.16,4.41C37.85,82.39,33.64,80.85,29.47,79.14Z"/><path class="cls-106" d="M52.66,61.18a8.54,8.54,0,0,1-3.74-2.26c-.75-.94-1.16-3-2.75-2-1.3.83-.9,2.83-.44,4.13a26.69,26.69,0,0,0,2.7,4.58c-2.27-.09-3.08-2.46-5-3.16a2.17,2.17,0,0,1-1.92-1.41c-1-3.75-3.1-7.77,2.41-9.93a7.28,7.28,0,0,1,3.25.08c1.9.58,2.89,2.14,3.94,3.65C52,56.91,53.89,58.67,52.66,61.18Z"/><path class="cls-161" d="M135.48,114.21c-2.21-.32-3.89-1.44-3.76-3.79.11-2.17,2.34-1.78,3.76-2.45,3.15-1.47,5.75.28,8.59.87a41.4,41.4,0,0,0,6.42.36l1.08,1c1.8,1.39,5.36-.86,6,2.91-3.68-1-7.28,3.63-10.76.5-2.07-1.86-4-1.7-6.32-1.46C137.43,109.38,136,110.77,135.48,114.21Z"/><path class="cls-162" d="M157.53,126.1l-.92-.93c2.69-2.24,5.39-.39,8,.09,5.19,1,10.56,1.37,15.34,4C172,131.17,165.06,126.73,157.53,126.1Z"/><path class="cls-163" d="M162.55,111.13c4.12-.12,8,1.62,12.23,1.12,1.19-.14,3.08-.28,2.94,1.58s-2,1.22-3.25,1.47c-5.12-2.16-10.87.15-16-2.22C158.86,110.37,161.48,112.35,162.55,111.13Z"/><path class="cls-157" d="M162.55,111.13c-.85,1.68-3.09.49-4.05,2l-.46.07h-.46c-1.44-2.14-4.35-1.23-6-2.92h4.91a6.75,6.75,0,0,1,4,.83C161.16,111.21,161.89,109.94,162.55,111.13Z"/><path class="cls-161" d="M170.54,103.18c-2.12.17-4.31.48-6.34.48-3.18,0-4,1.25-3.42,4.82l-6.3-5.26c.6-1.33,1.56-2.5,1.74-4,.43-3.68,2.8-4.91,6.19-4.8a3.47,3.47,0,0,1,1.28.59c.91,1,.72,2.54,1.47,3.61,1.5,2.14,1.5.23,1.81-.75,1.38-3.37,2.23-7.17,6.61-8.07,2,.18,3.07,1.51,3.8,3.22.46,1,.39,2.24,1.56,2.94,2.82,1.68,3,4,1.48,6.71a7,7,0,0,1-6.23.24C172.87,102.34,171.68,102,170.54,103.18Z"/><path class="cls-23" d="M163.49,95.21c-3.59.19-6.63.89-6.06,5.65.26,2.09-1.33,2.36-3,2.36h-1c-1.77-2-3.41-3.6-6.68-2.5a5.44,5.44,0,0,1-5.33-1.6c.43-2.66,2.65-1.79,4.24-2.11,1.74-.36,3.57.74,5.24-.34-.19-3-.17-5.77,4.16-3.83,1.17.53,2.25,0,3.33-.43C161.19,91.44,163.15,91.88,163.49,95.21Z"/><path class="cls-152" d="M184.46,104.22l1,1c-1.16,2.21-1.64,4.08,1.94,4,1.12,0,2.28-.09,3.08,1a13.35,13.35,0,0,1-8,0L167.82,109c3.73-2.63,7-.53,9.72-2.33-.87-1.49-3.44-1.4-4.09-3.36A26.13,26.13,0,0,1,184.46,104.22Z"/><path class="cls-164" d="M184.46,104.22c-3.82,1.44-7.33-.71-11-.94l-2.91-.1c.05-1.47.86-2.27,2.2-1.72,2.54,1.06,5.16.57,7.74.78a3.6,3.6,0,0,1,4,2Z"/><path class="cls-165" d="M182.5,110.21l8,0C187.85,111.93,185.18,111.62,182.5,110.21Z"/><path class="cls-161" d="M160.47,111.07c-1.39,0-2.91.63-4-.83C158.28,108.26,159.4,109.55,160.47,111.07Z"/><path class="cls-166" d="M143.42,119.24c-3.7,1.15-5.92-2.06-8.89-3l1-1Z"/><path class="cls-152" d="M184.47,104.22l-4-2c-.65-2.07.6-5-3.2-5.59-1.27-.19-.67-2.33-.72-3.62,1.69-.62,3.4,0,5.09-.13a16.85,16.85,0,0,1,8,1.38c2,.64,4.2.48,5.93,1.89l-5.5,0C182,96.23,181.52,97,184.47,104.22Z"/><path class="cls-167" d="M190.5,87.26l7,2a10.45,10.45,0,0,1,1.22,5.69l-9.29-2.66c-1.16.78-1.93.2-2.62-.72C184.88,87.41,187.77,87.41,190.5,87.26Z"/><path class="cls-168" d="M187.43,91.31l2,1,.21,2c-2.73.67-5.4-.35-8.11-.28-1-.4-2.52-.36-2.35-2,.12-1.12,1.1-1.58,2.1-1.84a10.35,10.35,0,0,1,4-.14A4.18,4.18,0,0,1,187.43,91.31Z"/><path class="cls-93" d="M152.53,76.31l13.88-2c.92,1,2.56.85,3.4,2a4.19,4.19,0,0,1-.89,3.27c-3.35,3.28-7.61.88-11.35,1.79-1.49.35-3.23-1-4.48.66,1.31,2,1.25,3.65-.94,4.93-2.2.75-4.57.66-6.79,1.36a12.48,12.48,0,0,1-8-1.89c-2.56-1.55-3.58-3.5-.49-5.66,4.48-1.43,9-2.8,13.46-4.32A4.77,4.77,0,0,1,152.53,76.31Z"/><path class="cls-169" d="M187.43,91.31l-1.92-.12c-7.48-1-14.88-2.63-22.45-3a9.54,9.54,0,0,1-3.55-1.58c-1.2-2.29.07-3,2.06-3,1.78,0,3.63-.26,5.35.27a5.77,5.77,0,0,0,5.84-1.4,7.69,7.69,0,0,1,3.13-.64c3.64.29,7.34.27,10.56,2.38l4.05,3C189.34,88.51,186,88.06,187.43,91.31Z"/><path class="cls-170" d="M152.53,76.31l-1.09.75c-3.95-2.29-4-2.75-.36-4.78a41.31,41.31,0,0,0,4.08-2.65,13.28,13.28,0,0,1,5.35-2.1,3.61,3.61,0,0,1,3.11,1.73l-1.2,1.87c-.13,1.1-1.08,1.46-1.81,2C158.21,75,154.45,73.29,152.53,76.31Z"/><path class="cls-116" d="M168.49,79.24l1-3c.07-.62.64-.7,1-1,2.14,2.38,5.12,2.49,8,3a2.41,2.41,0,0,1,.27,3.08,3.19,3.19,0,0,1-2.38.65C173.8,80.88,170.09,83.09,168.49,79.24Z"/><path class="cls-171" d="M178.45,81.12c0-1,0-1.92,0-2.88,3.85-.67,6.87,1.41,10,3,.37,1.27-.33,1.93-1.38,2.39C184.13,83.15,180.89,83.54,178.45,81.12Z"/><path class="cls-172" d="M178.45,81.12l9,2.16c.28.17.39.37.33.59s-.12.34-.21.34l-1.08.05-10.88-1.14c-.55-1.05.06-1.55.92-1.93Z"/><path class="cls-173" d="M187.53,84.21c0-.31-.07-.62-.11-.93.36-.68.72-1.36,1.09-2C191.8,80.76,193,83.49,196,86Z"/><path class="cls-174" d="M160.61,73.15a2.94,2.94,0,0,1,1.81-2c1.7.07,3.4-1.27,5.11,0a1.83,1.83,0,0,1,.93,2Z"/><path class="cls-175" d="M170.49,75.27l-1,1c-1.4,0-2.85,0-3.05-1.95A6,6,0,0,1,170.49,75.27Z"/><path class="cls-176" d="M176.31,50.22a4.57,4.57,0,0,1,.27.89l-1.2,5.2L173.67,56C173.23,53.49,174.62,51.79,176.31,50.22Z"/><path class="cls-177" d="M179.54,65.28l2.08.19c-.38,2.28-1.68,1.55-3,.91a3.86,3.86,0,0,1-.07-.89C178.91,65.41,179.22,65.34,179.54,65.28Z"/><path class="cls-178" d="M176.31,50.22,173.67,56l-1.29,3.11-2.07,4.06c-1.82.54-3.52.49-4.87-1.09,1.88-1.81,4.82-3,3.27-6.64-.31-.73.93-1.12,1.75-1.25,4.37-.61,4-3.93,4.07-7l1.79,1C176.32,48.86,176.32,49.54,176.31,50.22Z"/><path class="cls-179" d="M165.44,62.11c1.68.13,3.42,0,4.87,1.09-1.22,3.13-2.66,6-6.69,6.06l-3.15-1.09c-.46-1.76.57-2.52,2-3Z"/><path class="cls-167" d="M73.49,77.36a3.34,3.34,0,0,1-3-2.06c-2.85-3.91-7-6.93-7.63-12.32-.24-2.11-2.4-1.87-4-2a2.58,2.58,0,0,1-1.65-1.11c-.94-2.2-3.37-2.87-4.78-4.59-.35-.35-.66-.74-1-1.07-1.59-1.5-4.29-2.65-2.53-5.46,1.6-2.56,4-3.17,6.76-1.59,4.62,6,9.29,11.93,13.83,18a9.28,9.28,0,0,0,3.11,3.12l-.05-.06c1,2.23,3,3.11,5,4,.41.62,1.1,1,1.59.43,3.56-4.19,3.38-1,3.46,1.71a4,4,0,0,1,1.35,3.07c-.22,1.1-1,1.43-2,1.53-1.9-.11-3.35,1.13-5,1.7a2.64,2.64,0,0,1-1.31-.06C74.27,79.86,74.52,78.2,73.49,77.36Z"/><path class="cls-180" d="M55.6,47.17a22.91,22.91,0,0,0-3.43.35A3.67,3.67,0,0,0,49.26,50c-.57,2,1.26,1.81,2.24,2.52a11.14,11.14,0,0,1,2,2.7,2.29,2.29,0,0,1-3.13.12c-1.62-.43-1.55-2.35-2.77-3.13-1.66-2.35-3.41-4.67-3.16-7.8-.13-2.94-.15-5.79,4.14-5.19C52.81,40.2,53.43,44.37,55.6,47.17Z"/><path class="cls-181" d="M40.37,40.24c-3.5-2.44-6.61-5.1-5.91-10,1.38-.56,2.9-1.5,3,1.19.13,2.43-.91,5.49,3.45,5.54.81,0,.46,2.06.46,3.19Z"/><path class="cls-182" d="M44.46,44.36c1.22,2.53,3.73,4.55,3.16,7.8l-3.11.05c-4.17-1.86-4.64-5-3.1-8.87l.18-.2Z"/><path class="cls-183" d="M41.41,43.34c.36,3.2.44,6.49,3.1,8.87-3.06.3-3.18,2.43-2.87,4.74.19,1.47.53,2.91.81,4.37l-2.11-2c-2.71-2-2.88-5.45-4.7-8-.71-2.69-4.15-4.65-2.21-8.06C36.09,43.42,38.71,46.48,41.41,43.34Z"/><path class="cls-184" d="M91.37,70.15,94,71c.1.41.21.82.31,1.23-1.11,1.49-.52,3.26-.78,4.88l-.14.23-.93.76a5.26,5.26,0,0,0-2.31,2.65,4.18,4.18,0,0,1-2.66,1.85,2,2,0,0,1-1.29-.4,3.51,3.51,0,0,1-.68-2,5.62,5.62,0,0,1,.3-2,28.13,28.13,0,0,1,1.87-3.51A23.06,23.06,0,0,1,89.36,72Z"/><path class="cls-185" d="M77.49,72.16c-4.23,1.92-4.67-1-5-4C74.68,68.86,77.39,68.86,77.49,72.16Z"/><path class="cls-184" d="M83.4,77.3c-1.43-.67-.79-1.93-.86-3,1.27-1.43,2.62-.18,3.94-.12l.48.49a3.16,3.16,0,0,1-.24,2.65C85.61,78.53,84.5,79,83.4,77.3Z"/><path class="cls-186" d="M89.36,72c.08,1.18.39,2.43-.91,3.23-1.13.53-1.42-.53-2-1l0,0C86.12,71.71,88,72.2,89.36,72Z"/><path class="cls-187" d="M152.49,51.22a13.46,13.46,0,0,0,3.15-1.34c1.48-1.13,2.91-2.5,4.72-1,2.09,1.75-.83,2.75-.84,4-.06,3.84-2.09,7.49-1,11.4.13,2-1.16,2.56-2.85,2.6-3.54-1.25-3.61-5.9-7.07-7.23C148.89,56.41,150.63,53.79,152.49,51.22Z"/><path class="cls-188" d="M148.48,59.21c5.14-.45,4.23,5.21,7.11,7,.15.8-.19,1.13-1,1a54.1,54.1,0,0,0-5.5,1.91c-4.16,1.92-6.54.74-7.6-3.94.23-3.77,3.64-4.36,6-6A.62.62,0,0,1,148.48,59.21Z"/><path class="cls-189" d="M154.6,67.26l1-1a3,3,0,0,0,2.94-1.92,3.42,3.42,0,0,1,.9-.12c1.1.08,2.32-.24,3.07,1l-2,3-4.95,2.08c-1.26.62-2.52,1.24-2.94-.9Z"/><path class="cls-64" d="M148.48,59.21c-.33,0-.65,0-1,0-2-3.1.24-6.66,5-8C151.75,54.18,151.76,57.52,148.48,59.21Z"/><path class="cls-190" d="M166.39,53.14c1,2.45-.78,4.28-1.76,6.08-.8,1.49-1.86.64-2.14-.84Z"/><path class="cls-191" d="M137.5,81.16c-1.89,1.64-2.44,3.09.45,4.26,2.45,1,4.9,2,7.62,1.87a1.15,1.15,0,0,1-.17,1.29c-2.66,1.36-4.4,4.35-7.82,4.34-2-.22-3.63-1-3.81-3.17-.21-2.5-1.81-4.17-3-6.08-1.14-2.42-3.07-1.14-4.66-.86s-2.91,1.57-4.56.4l-1.94-.84c1.12-.73,2.16-1.52,1.79-3.11,1.8,1.07,2.93,1.52,5.35-.06s6.51-.72,9.87-.93c1.33.21-3.24,2.11.49,1.7C137.44,79.93,137.64,80.65,137.5,81.16Z"/><path class="cls-192" d="M137.5,81.16c-.65-1.47-2.38-.45-3.28-1.4l2.37-1.49c6.07-1.65,10.63-6,16-8.92.75,1.09,1.91.8,3,.9-1.08,2.68-3.88,2.83-6.14,4.08.29,1.25,2.44,1.13,2.06,2.73C146.93,78.9,142.53,81.1,137.5,81.16Z"/><path class="cls-131" d="M93.53,77.14c-1.17-1.85-1.55-3.58.78-4.88,0,1.68,0,3.35.07,5A6,6,0,0,1,93.53,77.14Z"/><path class="cls-193" d="M97.42,100.12c1.45-5.19,6.64-5,10.24-7.12l.36.55c.36,1.38-.24,2.6-.61,3.86a8.21,8.21,0,0,1-1.19,2.34,3.34,3.34,0,0,1-1.61,1.1c-1.46.2-1.47,1.29-1.44,2.37-1,1.74,2.12,1.47,1.49,3a2.85,2.85,0,0,1-1.83.89,4.89,4.89,0,0,1-1.38-.09,3.92,3.92,0,0,1-1.2-.58,33.06,33.06,0,0,0-3.73-4.29A2.11,2.11,0,0,1,97.42,100.12Z"/><path class="cls-194" d="M85.58,91.24c2.75-.52,4.85.22,5.94,3,1,1.69,1.59,3.37-.08,5l-2,1c-.92.59-2,1.08-1.84,2.46a3.73,3.73,0,0,1-.86,2.54,1.42,1.42,0,0,1-1.81-.55c-.77-1.37-1.8-2.64-1.68-4.35a2.24,2.24,0,0,0,1.38-2.52c2.72-1.5,1.3-3.47.6-5.36A1.49,1.49,0,0,1,85.58,91.24Z"/><path class="cls-195" d="M91.42,83.1a5.87,5.87,0,0,0,3.91,1.24c.14,1.1-.56,1.81-1.09,2.64-1.06,1.69-1.9,3.62-4.45,3-2.74-.64-2-3-2.3-4.82l.44-.48c.9-.59,2-.84,2.88-1.42Z"/><path class="cls-196" d="M91.44,99.24c0-1.67.06-3.34.08-5,1.49.67,2.89,1.32,3.24,3.26.2,1.12.93,2.21-.29,3.05C92.88,101.64,92.17,100.35,91.44,99.24Z"/><path class="cls-197" d="M96.52,102.19c2.91-.31,3.6,1.67,4,3.91a2,2,0,0,1-2,1.63,2.88,2.88,0,0,1-2.43-2.16,1.45,1.45,0,0,1,.26-1.27Z"/><path class="cls-198" d="M86.37,105.21l.18-2.92a1.31,1.31,0,0,1,1.91-.25l2.23,2.16a1.3,1.3,0,0,1-.2,1.43C89,106.51,87.47,108,86.37,105.21Z"/><path class="cls-199" d="M85.41,86.17c0,.69,0,1.37,0,2.06-.47.69-.1,1.74-1,2.27a1.73,1.73,0,0,1-1.22-.2c-.82-1-1.45-2.09-2.31-3a3.37,3.37,0,0,1-.59-3.16,2.24,2.24,0,0,1,1.93-.44C83.69,84,84.47,85.19,85.41,86.17Z"/><path class="cls-200" d="M99.46,90.15l-1.91.13c-1.34-1.14-1.33-2.23.22-3.12.66-.38,1.75-1.21,2.11-.26S99.63,89.06,99.46,90.15Z"/><path class="cls-201" d="M86.39,80.24c.1.66.21,1.31.31,2,1,.78,1.85,1.64.88,3l-.09,0-2,.2c-2.46-.56-2-2.36-1.78-4.1C84.28,80.16,85,79.35,86.39,80.24Z"/><path class="cls-202" d="M96.43,104.3a7,7,0,0,1,.1.8c.64,1.27.67,2.21-1.15,2.18a2.39,2.39,0,0,1-.79-.18c-1.12-.83-3.64-.15-3.06-2.83Z"/><path class="cls-203" d="M91.53,104.27c.25,1.78,2.38,1.52,3.06,2.83l-2.07.19-1.88.85a2,2,0,0,1-.48-2.83l.53-1.11Z"/><path class="cls-204" d="M84.41,81.21c.42,1.38-.65,3.13,1.06,4.18a3.42,3.42,0,0,1-.06.78,2.86,2.86,0,0,1-2.94-2.06c-.49-.87-.06-1.6.36-2.33C83.25,81.29,83.71,80.91,84.41,81.21Z"/><path class="cls-205" d="M84.37,90.28c.13-.8.21-1.63,1.06-2a2.69,2.69,0,0,1,.15,3c-.06.31-.11.63-.14,1a2,2,0,0,1-1.77,1.6,2.46,2.46,0,0,1-1.21-.32,1.74,1.74,0,0,1-.32-1.17C82.46,91.15,83.56,90.87,84.37,90.28Z"/><path class="cls-206" d="M88.46,102l-1.91.25c-.17-2.26,1.36-2.14,2.87-2Z"/><path class="cls-165" d="M131.45,83.19c1.28,2.11,4.55,3.08,3.33,6.68-.44,1.29,1.66,1.68,2.71,2.34a2.53,2.53,0,0,1,.44,3c-2.37,2.49-4.92,2.6-7.64.58-1.51-1.12-3.23-1.9-4.82-2.92a2.29,2.29,0,0,1-1-1.79c.56-.25,1.23-.83,1.67-.69,3.76,1.16,4.92,0,3.62-3.73a14.62,14.62,0,0,1-.34-3.34A1.34,1.34,0,0,1,131.45,83.19Z"/><path class="cls-207" d="M108.63,90.19l6.82-1.94c2.53-1.6,4.6-1.91,5.21,1.86a2.79,2.79,0,0,1-.5,2.68c-.58.62-1.68,1.31-2,.71-1.29-2.15-1.41.38-2.1.4a5.83,5.83,0,0,1-2.24.56c-1.74-.25-4,.51-4.34-2.37Z"/><path class="cls-208" d="M131.45,83.19l-2,.1c-2.64-1.17-5.32,2.55-8-.08,2.23.11,4.14-1,6.2-1.58C129.35,81.18,131.08,80.58,131.45,83.19Z"/><path class="cls-209" d="M119.57,92.48c.37-.79.73-1.58,1.09-2.37a4,4,0,0,0,3.86.94l.92,1.14a1.74,1.74,0,0,1-1.31,1.44A6.78,6.78,0,0,1,119.57,92.48Z"/><path class="cls-210" d="M109.44,92.09c1.41,1.88,3.46.85,5.22,1.17,1,1.41,1.08,2.77-.25,4-1.35.48-2.15-.71-3.23-1.05-1.45-.68-2.89-1.38-3.56-3l0-.25Z"/><path class="cls-211" d="M92.73,77.29a5,5,0,0,1,.66.08c0,1.26,0,2.52,0,3.77l-2,2,0,.11c-1.72,1.26-3,.8-3.93-1-.05-1.38,1.75-.83,2-1.91A16.88,16.88,0,0,1,92.73,77.29Z"/><path class="cls-212" d="M127.49,99.2a52.65,52.65,0,0,1,.78,8.27c-.05,3.66-2.34,3.36-3.57,2-3.83-4.15-5.28-.7-7.22,1.72l-2.81-1a1,1,0,0,1-.34-.85c0-.31.08-.47.14-.47,2.53-2.51,5.27-4.75,7.16-7.93C122.79,99,124.94,97.75,127.49,99.2Z"/><path class="cls-213" d="M98.48,107.27l2.08-1.17a4.49,4.49,0,0,0,.9.18c1.21,0,0,3.13,2.27,1.8,1.37-.4,2.74-1,4.06.1a2.1,2.1,0,0,1,0,2.11,2.2,2.2,0,0,0-2.55,2.25c.72,4.41-2.41,3.5-4.76,3.77l-1-1.93c.37-2.29-2.47-1.87-2.93-3.47C97.27,109.73,97.27,108.18,98.48,107.27Z"/><path class="cls-214" d="M114.37,109.22a7.5,7.5,0,0,0,.3,1c-.2.84-.2,1.79-1.24,2.14-2,0-2.86-1.17-3.2-2.94,2.68-1.32-1.1-1.9-.35-3a3.12,3.12,0,0,1,.25-1.35,3.24,3.24,0,0,1,2.91-1.5c1.28.19,2.6-.06,3.89.23a1.82,1.82,0,0,1,1.07,1.5C117.78,107.48,114.66,107.06,114.37,109.22Z"/><path class="cls-215" d="M110.39,109.24l3,3.07c-2.93,2.28-3.13-3-5.59-2l-.15-2C109.06,107.29,109.86,107.88,110.39,109.24Z"/><path class="cls-216" d="M70.5,116.3c.39-4.28,2.24-6.6,6.9-5.13C75.53,113.46,74.33,116.64,70.5,116.3Z"/><path class="cls-217" d="M90.16,105.31l.48,2.83c-1.17,2-4,.1-5.15,2.17l-1.13-1a4.1,4.1,0,0,1-.71-3.79c.33-.77.77-1.39,1.75-1.28l1,1C87.57,107.67,88.91,104.6,90.16,105.31Z"/><path class="cls-218" d="M83.48,109.05c-2,1.49-3.6,1.48-4-1.34a9.52,9.52,0,0,0-1.23-3.53A2,2,0,0,1,78.3,102a3.25,3.25,0,0,1,2.83-.65c1.41.38,1.79,1.4,1.71,2.71C82.5,105.8,83.86,107.32,83.48,109.05Z"/><path class="cls-219" d="M78.66,102.24l-.42,1.94-2.9-.11c.31-1.1-.4-1.87-.9-2.7.13-.19.26-.37.38-.56a3.63,3.63,0,0,1,2.63-.44,3.24,3.24,0,0,1,1.21.62A1.12,1.12,0,0,1,78.66,102.24Z"/><path class="cls-220" d="M83.48,109.05c-1-1.49-2.4-2.86-1.91-4.94a2.52,2.52,0,0,1,3,.94c0,1.41-.11,2.82-.16,4.23A5.43,5.43,0,0,1,83.48,109.05Z"/><path class="cls-221" d="M98.48,107.27c-.34,1.37,1,3.62-1.91,3.64-1.23-.93-1.28-2.26-1.19-3.63a2.3,2.3,0,0,0,1.15-2.18Z"/><path class="cls-222" d="M114.37,109.22c-3.14-4.32,2.79-2.36,3-4.35.92-1.17-.24-1.61-.81-2.26-1.34-1.24-1.78-2.44.17-3.52,2-.89,2.43-2.87,3.27-4.58,1.08-1.81,3-.68,4.47-1.33l1-1,5.06,2c.6,1.07.88,2.12-.16,3.09l-2.85,1.9a7.5,7.5,0,0,0-6.42,4.64A9.71,9.71,0,0,1,114.37,109.22Z"/><path class="cls-223" d="M130.34,97.3c0-1,.11-2.06.16-3.09,1.94,3,4.52,1.55,7,1,5.68-2,10.88-.26,16,2-.76,1.6-1.73,1.68-3.53,1.32-2.75-.56-5.76-1.25-8.47.53A28,28,0,0,1,130.34,97.3Z"/><path class="cls-166" d="M130.45,115.18l-1.93.09c-.65-.23-2.13-.43-1.36-1.12S129.57,114.05,130.45,115.18Z"/><path class="cls-224" d="M63.52,99.21c.61,0,1.84,1.08,1.63-.43-.31-2.24,1.15-3,2.44-2.44,3.64,1.64,3.84-1.13,4.73-3.17,1.64,1.09,2,2.7,1.76,4.51s-3.46,1.22-2.59,3.67l1,3.86c-3.42.75-5.94,4.48-10,3l-1-1c1.17-2.22-.35-4.83,1-7C62.28,99.29,62.6,98.94,63.52,99.21Z"/><path class="cls-225" d="M71.49,101.35c-.92-.4-3,.29-2.61-1.1.52-2,2.87-2,4.7-2.22a2.38,2.38,0,0,1,.89,2.93l0,.41Z"/><path class="cls-226" d="M46.53,99.13c.52-2.79-4.73-3-3.08-5.2,1.49-2,5-.48,7.56-.7a25.14,25.14,0,0,1,3.47,0c1.12,0,2,.57,1.74,1.82a1.32,1.32,0,0,1-2,.85c-2.52-1.17-3.62.49-4.76,2.19C48.76,99.22,47.86,99.8,46.53,99.13Z"/><path class="cls-227" d="M46.53,99.13l3-1,6-.88a1.32,1.32,0,0,1,0,2c-5.33,2.39-10.8,2.42-16.38,1.06C41.44,98.68,44.07,99.47,46.53,99.13Z"/><path class="cls-228" d="M55.52,99.22l0-2a18.92,18.92,0,0,1,7-1.06c1.18.73,1,1.91,1,3l-1,1Z"/><path class="cls-51" d="M16.53,92.24c2.38-1.27,2.89-5.66,7.24-4,1,.39,2.35-1.94,2.64-3.59s-.61-2.44-2.25-2.46a2.77,2.77,0,0,1-2.63-1c7.19-1.35,14.22-1.53,20.67,2.74.88,2.17,1,4.26-.66,6.16Z"/><path class="cls-229" d="M41.54,90.1l0-5.92a6,6,0,0,1,7.68-.5c2.59,1.61,6.33.54,8.31,3.56.25,2.27-.86,3.17-3,3Z"/><path class="cls-230" d="M57.5,87.24c-5.45-.36-10.22-4.32-16-3.06-6.34-3.13-13.3-2.12-20-3,1.75-4.15,5.38-1,7.94-2.06,4.6-.85,8.58,2.19,13.06,2.1a3,3,0,0,1,2.72-.84,115,115,0,0,1,19.18,4.79,3.38,3.38,0,0,1,2.08,2C68,89.44,66,89.3,65,89.11,62.45,88.67,60,87.88,57.5,87.24Z"/><path class="cls-231" d="M66.51,87.19a153.35,153.35,0,0,0-24-6c-2.46-1-1-1.94,0-2.88,4.91-1.21,9.37.92,14,1.85,3.88,1.58,8.53.85,11.89,4,.52.3,1.39.52,1.49.93.2.85-.71.86-1.3,1.08S67.22,86.85,66.51,87.19Z"/><path class="cls-232" d="M56.5,81.24,42.58,78.36c-1.38-.36-3,.31-4.13-1.08.68-1.15,2.22-1,3-2l8,1.93c2.43-.36,4.88-1,7,.87l2.94,1.13C59.59,81.6,57.75,81,56.5,81.24Z"/><path class="cls-233" d="M75.58,80.15a5,5,0,0,0,.86,0c2.09-.6,2,1.11,2.46,2.27-.1,1.35-.59,2.73.24,4a4.89,4.89,0,0,1,.32,1.89,6.59,6.59,0,0,1-1,3.16A4.53,4.53,0,0,1,77,93a2.64,2.64,0,0,1-2.61.32.93.93,0,0,1,.09-1.2c.76-3.38-1.19-6.49-1-9.81A2.49,2.49,0,0,1,75.58,80.15Z"/><path class="cls-234" d="M56.5,81.24l3-2c2.47.64,4.94,1.32,7.43,1.9,1.78.41,2.63,1.19,1.59,3A58.18,58.18,0,0,1,56.5,81.24Z"/><path class="cls-235" d="M56.51,78.13c-2.35-.19-4.86.88-7-.87a18,18,0,0,1,2.71-2.8c1.18-.81,2.59-1.78,4.1-.71C58.14,75.06,57.33,76.62,56.51,78.13Z"/><path class="cls-236" d="M74.44,92.1c0,.37,0,.74.07,1.12a27.89,27.89,0,0,0,3.26,2.87,4,4,0,0,1,.61,1.18,6.24,6.24,0,0,1,.17,1.35,3.07,3.07,0,0,1-1.09,2.45l-3-.11A3.8,3.8,0,0,1,73.58,98l-1.26-4.86C72.66,92.08,73.61,92.21,74.44,92.1Z"/><path class="cls-237" d="M41.47,75.33c1,3.82-2.18,1-3,2-2.06-.15-4.3.15-5.6-2.19,1.39-1.53,3.2-.54,4.69-1A6.39,6.39,0,0,1,41.47,75.33Z"/><path class="cls-238" d="M75.58,80.15a3.72,3.72,0,0,1-2.15,2.14c-1-.31-.92-1.18-1-2l1.08-3C75.05,77.65,75.53,78.74,75.58,80.15Z"/><path class="cls-239" d="M58.53,60.22c3.18-1.34,5.24-.8,5.91,3S66.38,70.6,70,72.75c1.14.68,1,1.57.52,2.55-4.06-3.69-10-4.88-13-10C56,63.24,55.55,61.37,58.53,60.22Z"/><path class="cls-240" d="M50.39,55.29l3.13-.12c.94,1.77,4.71.75,4,4.1-1,1.06-1.67,2.42-3.09,3l-1.8-1.14C51.9,59.21,51.15,57.25,50.39,55.29Z"/><path class="cls-241" d="M54.46,62.32c.15-1.92,1-3.07,3.09-3l1,.95a4.83,4.83,0,0,0-1.07,5.09Z"/><path class="cls-241" d="M163.49,95.21c-1.26-1.68-2.76-2.77-5-2-4.63.55-7-1.58-6.38-5.71a8.76,8.76,0,0,1,4.78-.37A43.78,43.78,0,0,0,168.5,88.8c1.77-.06,3.65-.1,5,1.45-3.48,1.54-3.83,5.44-6,8-2.23.19-3-1.54-4-3Z"/><path class="cls-242" d="M173.51,90.25c-5.73-.08-11.51.35-16.93-2.12,1.48-3.37,3.91-.94,5.94-.95a64.66,64.66,0,0,1,23,4c-1.17,0-2.33,0-3.49.07-.81,0-2-.08-2,.91,0,.59.94,1.22,1.46,1.83a6,6,0,0,1-4.94-1A5.84,5.84,0,0,0,173.51,90.25Z"/><path class="cls-51" d="M163.49,95.21l4,3c-.3.94,1.23,2.35-.5,2.86a2.37,2.37,0,0,1-3.14-1.55A22.73,22.73,0,0,1,163.49,95.21Z"/><path class="cls-173" d="M151.48,88.28c1.56,2.74,4.29,3.83,7,4.93a3.11,3.11,0,0,1-3.42,1.29c-1.1-.23-1.71-2.82-3.13-.89-1.31,1.77.9,2.48,1.54,3.66l-16-2c0-1,0-2,0-3,3.21-.3,4.29-4.85,8.06-4C147.54,87.16,149.53,86.61,151.48,88.28Z"/><path class="cls-173" d="M172.53,83.15c-.42,2.87-1.82,3.24-4.54,2.42s-5.85-1.9-8.52.6c-2.35.59-4.7,1.83-7-.06,1.57-2.46.53-3.59-2-4C153.67,79.82,169.78,80.55,172.53,83.15Z"/><path class="cls-243" d="M172.53,83.15c-7.34-.78-14.62-3-22.1-1-1.45-1.68-.13-1.88,1.1-1.92,3.72-.11,7.45-.22,11.17-.16,2,0,4,.12,5.79-.83,2.25,2.37,5.76-.45,8,2-.31.64-.62,1.29-.92,1.93Z"/><path class="cls-244" d="M152.45,86.11l7,.06c1.09.12,2.3-.13,3.05,1-2,.38-4.19-.78-5.94.95l-5.1.15-5.93-.1a3.78,3.78,0,0,1,0-.89C147.65,85.63,150.15,86.45,152.45,86.11Z"/><path class="cls-184" d="M78.47,82.93l-2-2.74c2,0,2.26-4.45,5.2-2a3.64,3.64,0,0,1,.52,3.71c-.48,1.07-1.53,1.33-2.47,1.74A1,1,0,0,1,78.47,82.93Z"/><path class="cls-245" d="M81.55,82.07l.09-3.93c.73,0,1.57.27,1.76-.84,1,.4,2,.72,2.95-.07.38.15.53.33.45.55s-.19.35-.3.35c0,.71-.07,1.41-.11,2.11l-2,1-1,1C82.71,82.75,82.1,82.81,81.55,82.07Z"/><path class="cls-246" d="M87.54,82.2a5.18,5.18,0,0,0,3.93,1c-.24,2.73-2.35,1.82-3.89,2-.3-1-.59-2-.88-3Z"/><path class="cls-247" d="M92.73,77.29a3,3,0,0,1-3.2,3C89.6,78.23,90.66,77.22,92.73,77.29Z"/><path class="cls-248" d="M86.5,78.13a4.7,4.7,0,0,0-.15-.9c0-1,.08-2,.11-3l2,1C87.78,76.2,87.81,77.62,86.5,78.13Z"/><path class="cls-249" d="M105.58,99.21l1-1.93a4.17,4.17,0,0,1,4.42.49,4.41,4.41,0,0,1,1.8,2.78c-1.5,1-1.48,3.09-3,4a2.73,2.73,0,0,1-1.63-1A34.66,34.66,0,0,0,105.58,99.21Z"/><path class="cls-250" d="M110.39,109.24l-2.7-1-4.22,1c-1-.77-1.93-1.6-1-3l2-.3a5.25,5.25,0,0,1,2.43-.08,13,13,0,0,0,1.76-.22,1.78,1.78,0,0,1,1.62.51C109.49,107.21,114.12,108,110.39,109.24Z"/><path class="cls-251" d="M110.53,98.32c-1-1.34-2.75-.24-4-1-.56-1.58,1.14-2.57,1-4l3.76,2.06C112.37,96.67,112.6,97.82,110.53,98.32Z"/><path class="cls-252" d="M105.58,99.21c2.8,0,3.11,1.74,2.81,3.94a2.07,2.07,0,0,1-1.1.73A3,3,0,0,1,104,102a1.58,1.58,0,0,1,.58-1.78Z"/><path class="cls-253" d="M107.43,107.1c-1.35.51-2.05-.63-3-1.18-.06-1.29-3.65,0-1.9-2.63.45-.75.8-1.72,2-1.06l0,0C105.25,104,108.52,104.24,107.43,107.1Z"/><path class="cls-254" d="M104.54,102.23l-2,1.06c-.35-1.14-1.66-2.24-.54-3.46.84-.91,1.71.21,2.56.41C104.56,100.9,104.55,101.57,104.54,102.23Z"/><path class="cls-255" d="M102.43,106.22c.35,1,.69,2,1,3-3.63,1-1.28-2-2-3C101.78,106.25,102.11,106.23,102.43,106.22Z"/><path class="cls-256" d="M83.41,93.31l2-1.12c2.21.94,2.65,3.11,2.52,5s-2.15.8-3.33,1.09A2.42,2.42,0,0,1,82.35,97,3.81,3.81,0,0,1,83.41,93.31Z"/><path class="cls-257" d="M84.52,105.05c-1.26.55-2-.5-3-.94-.44-.65,1.52-1.2.08-1.9-.85-1-.06-1.57.6-2.17a1.09,1.09,0,0,1,1.19.32c.57,1.33,2.42,2,2,3.85Z"/><path class="cls-258" d="M83.44,100.36l-.42-.12-.43,0a2.11,2.11,0,0,1-.6-2.61l.47-.56c.86.12,1.72.23,2.17,1.13C85.08,99.41,85.17,100.4,83.44,100.36Z"/><path class="cls-259" d="M78.47,82.93a2.59,2.59,0,0,0,.92,0,1.77,1.77,0,0,1,1.27,1.35l.74,2.85a1.17,1.17,0,0,1-1,.38,5,5,0,0,1-1.92-1.17A2.7,2.7,0,0,1,78.47,82.93Z"/><path class="cls-260" d="M80.53,87.14a2.31,2.31,0,0,0,.87,0c2,.08,2.19,1.39,2.08,2.94-1,1.25-1.9.55-2.84-.06A3.05,3.05,0,0,1,80,88.92,1.82,1.82,0,0,1,80.53,87.14Z"/><path class="cls-261" d="M80.66,84.3,79.39,83l2.16-.88,1.82.16-.9,1.88Z"/><path class="cls-262" d="M80.42,89.32l3.06.77a5.42,5.42,0,0,0,.89.19,2.27,2.27,0,0,1-1.8,1.81,2.38,2.38,0,0,1-2.4-.89A1.71,1.71,0,0,1,80.42,89.32Z"/><path class="cls-263" d="M80.4,91.06c.82.15,1.72.11,2.17,1,0,.32-.06.65-.07,1,0,1.51-.14,3-1.47,4-1.1.67-2.22,1.18-3.45.29l-.18-1.14A1.83,1.83,0,0,1,77,94.34a20.43,20.43,0,0,0,1.56-3.47A1.59,1.59,0,0,1,80.4,91.06Z"/><path class="cls-264" d="M80.58,96.35c1.58-.55.22-2.81,1.92-3.29a5.85,5.85,0,0,0,.91.25,4.41,4.41,0,0,1-1,3.79v.11a1.26,1.26,0,0,1-1.08.47C80.74,97.45,80.26,97.14,80.58,96.35Z"/><path class="cls-265" d="M109.56,104.31a4.59,4.59,0,0,1,3.13-4c-.2-1.17-.28-2.31.89-3.09,1.7-1,.5-2.71,1.08-4l1.74,0a2.81,2.81,0,0,1,1,2.69A6.55,6.55,0,0,1,116,99.34c-1.6,1.24-.61,3.86-2.59,4.9l-3,1.21C109.58,105.52,109.29,105.13,109.56,104.31Z"/><path class="cls-266" d="M116.58,96.27l-.18-3c.33-3.12,2.67,1.67,3.17-.8a6.8,6.8,0,0,1,4.92.7c-.79,1.74-3.18.44-4,2.09C119.23,95.81,118,96.56,116.58,96.27Z"/><path class="cls-267" d="M113.58,97.24c-.46,1,.58,2.4-.89,3.09a3.72,3.72,0,0,1-2.16-2c1.35-.7.78-1.95.85-3C112.82,95.15,113.45,95.91,113.58,97.24Z"/><path class="cls-268" d="M113.42,104.24c.08-1.95.24-3.86,2.1-5.08,1-.64,1.77-.54,1.94.84-4.15.81,1,1.4.05,2.13a1.9,1.9,0,0,1-1.1,1.87C115.44,104.4,114.55,105.85,113.42,104.24Z"/><path class="cls-269" d="M116.41,104a2.11,2.11,0,0,1,1.1-1.87c.86.47,1.85,1,1.75,2.09s-1.09.85-1.87.65Z"/><path class="cls-270" d="M109.56,104.31l.89,1.14a5.31,5.31,0,0,1-.2.68l-1.56.05c-1.08-.7-1.65-1.59-1.08-2.9l.78-.13Z"/><path class="cls-271" d="M81.62,97.29a2.33,2.33,0,0,1,.83-.08c0,1,.09,2,.14,3.06-.31.64-.63,1.29-.94,1.94l-3,0-.27-1C78,99.39,79.7,99,80.58,98Z"/><path class="cls-272" d="M81.4,98.12c-.23,1.79-2.27,1.84-3,3.14a7.62,7.62,0,0,1-.93-.18c.07-1,.13-2,.19-2.92A3.57,3.57,0,0,1,81.4,98.12Z"/><path class="cls-273" d="M117.46,100l-1.94-.84c-.23-1.18.59-2,1.06-2.89,1-1.39,2-3,3.89-1C120.79,97.69,119.84,99.3,117.46,100Z"/><path class="cls-274" d="M77.44,94.32l0,1.84c-3.15,1.17-2.27-1.63-2.9-2.94l2.08-1A2.25,2.25,0,0,1,77.44,94.32Z"/><path class="cls-275" d="M77.44,94.32a1.89,1.89,0,0,1-.85-2.09l1-1.14c.42-.31.73-.2.95.25C79.31,92.76,79.85,94.1,77.44,94.32Z"/><path class="cls-276" d="M78.57,91.34c-.32-.1-.63-.18-.95-.25l.95-2.76c1.11-.78,1.36.42,2,.83l-.11.16c0,.58,0,1.16,0,1.74Z"/><path class="cls-277" d="M80.53,89.16l-2-.83-.09-2c.84-.16,1.64-.21,2,.78Z"/><path class="cls-278" d="M81.4,98.12l-3.75,0a1.49,1.49,0,0,1-.07-.86l3-1,1,.94C81.55,97.57,81.47,97.85,81.4,98.12Z"/><path class="cls-279" d="M107.61,103.28l1.08,2.9c-.23.57-.56,1-1.26.92,0-2.19-3.08-2.59-2.92-4.9Z"/></g></g></svg>